<?xml version="1.0" encoding="utf-8" standalone="no"?>
<!DOCTYPE svg PUBLIC "-//W3C//DTD SVG 1.1//EN"
  "http://www.w3.org/Graphics/SVG/1.1/DTD/svg11.dtd">
<svg height="308.590878pt" version="1.1" viewBox="0 0 589.027187 308.590878" width="589.027187pt" xmlns="http://www.w3.org/2000/svg" xmlns:xlink="http://www.w3.org/1999/xlink">
 <metadata>
  <rdf:RDF xmlns:cc="http://creativecommons.org/ns#" xmlns:dc="http://purl.org/dc/elements/1.1/" xmlns:rdf="http://www.w3.org/1999/02/22-rdf-syntax-ns#">
   <cc:Work>
    <dc:type rdf:resource="http://purl.org/dc/dcmitype/StillImage"/>
    <dc:date>2021-08-20T11:27:31.262633</dc:date>
    <dc:format>image/svg+xml</dc:format>
    <dc:creator>
     <cc:Agent>
      <dc:title>Matplotlib v3.4.2, https://matplotlib.org/</dc:title>
     </cc:Agent>
    </dc:creator>
   </cc:Work>
  </rdf:RDF>
 </metadata>
 <defs>
  <style type="text/css">*{stroke-linecap:butt;stroke-linejoin:round;}</style>
 </defs>
 <g id="figure_1">
  <g id="patch_1">
   <path d="M 0 308.590878 
L 589.027187 308.590878 
L 589.027187 0 
L 0 0 
z
" style="fill:none;"/>
  </g>
  <g id="axes_1">
   <g id="patch_2">
    <path d="M 68.467188 297.890878 
L 581.827188 297.890878 
L 581.827188 26.090878 
L 68.467188 26.090878 
z
" style="fill:#ffffff;"/>
   </g>
   <g id="patch_3">
    <path clip-path="url(#pae7aef2c59)" d="M 68.467188 38.445424 
L 119.803188 38.445424 
L 119.803188 60.908233 
L 68.467188 60.908233 
z
" style="fill:#e54e35;"/>
   </g>
   <g id="patch_4">
    <path clip-path="url(#pae7aef2c59)" d="M 68.467188 83.371043 
L 201.940788 83.371043 
L 201.940788 105.833853 
L 68.467188 105.833853 
z
" style="fill:#e54e35;"/>
   </g>
   <g id="patch_5">
    <path clip-path="url(#pae7aef2c59)" d="M 68.467188 128.296663 
L 248.143188 128.296663 
L 248.143188 150.759473 
L 68.467188 150.759473 
z
" style="fill:#e54e35;"/>
   </g>
   <g id="patch_6">
    <path clip-path="url(#pae7aef2c59)" d="M 68.467188 173.222283 
L 232.742388 173.222283 
L 232.742388 195.685093 
L 68.467188 195.685093 
z
" style="fill:#e54e35;"/>
   </g>
   <g id="patch_7">
    <path clip-path="url(#pae7aef2c59)" d="M 68.467188 218.147903 
L 176.272788 218.147903 
L 176.272788 240.610713 
L 68.467188 240.610713 
z
" style="fill:#e54e35;"/>
   </g>
   <g id="patch_8">
    <path clip-path="url(#pae7aef2c59)" d="M 68.467188 263.073523 
L 109.535988 263.073523 
L 109.535988 285.536333 
L 68.467188 285.536333 
z
" style="fill:#e54e35;"/>
   </g>
   <g id="patch_9">
    <path clip-path="url(#pae7aef2c59)" d="M 119.803188 38.445424 
L 196.807188 38.445424 
L 196.807188 60.908233 
L 119.803188 60.908233 
z
" style="fill:#fdbb6c;"/>
   </g>
   <g id="patch_10">
    <path clip-path="url(#pae7aef2c59)" d="M 201.940788 83.371043 
L 314.879988 83.371043 
L 314.879988 105.833853 
L 201.940788 105.833853 
z
" style="fill:#fdbb6c;"/>
   </g>
   <g id="patch_11">
    <path clip-path="url(#pae7aef2c59)" d="M 248.143188 128.296663 
L 438.086388 128.296663 
L 438.086388 150.759473 
L 248.143188 150.759473 
z
" style="fill:#fdbb6c;"/>
   </g>
   <g id="patch_12">
    <path clip-path="url(#pae7aef2c59)" d="M 232.742388 173.222283 
L 289.211988 173.222283 
L 289.211988 195.685093 
L 232.742388 195.685093 
z
" style="fill:#fdbb6c;"/>
   </g>
   <g id="patch_13">
    <path clip-path="url(#pae7aef2c59)" d="M 176.272788 218.147903 
L 325.147188 218.147903 
L 325.147188 240.610713 
L 176.272788 240.610713 
z
" style="fill:#fdbb6c;"/>
   </g>
   <g id="patch_14">
    <path clip-path="url(#pae7aef2c59)" d="M 109.535988 263.073523 
L 207.074388 263.073523 
L 207.074388 285.536333 
L 109.535988 285.536333 
z
" style="fill:#fdbb6c;"/>
   </g>
   <g id="patch_15">
    <path clip-path="url(#pae7aef2c59)" d="M 196.807188 38.445424 
L 284.078388 38.445424 
L 284.078388 60.908233 
L 196.807188 60.908233 
z
" style="fill:#feffbe;"/>
   </g>
   <g id="patch_16">
    <path clip-path="url(#pae7aef2c59)" d="M 314.879988 83.371043 
L 463.754388 83.371043 
L 463.754388 105.833853 
L 314.879988 105.833853 
z
" style="fill:#feffbe;"/>
   </g>
   <g id="patch_17">
    <path clip-path="url(#pae7aef2c59)" d="M 438.086388 128.296663 
L 474.021588 128.296663 
L 474.021588 150.759473 
L 438.086388 150.759473 
z
" style="fill:#feffbe;"/>
   </g>
   <g id="patch_18">
    <path clip-path="url(#pae7aef2c59)" d="M 289.211988 173.222283 
L 335.414388 173.222283 
L 335.414388 195.685093 
L 289.211988 195.685093 
z
" style="fill:#feffbe;"/>
   </g>
   <g id="patch_19">
    <path clip-path="url(#pae7aef2c59)" d="M 325.147188 218.147903 
L 350.815188 218.147903 
L 350.815188 240.610713 
L 325.147188 240.610713 
z
" style="fill:#feffbe;"/>
   </g>
   <g id="patch_20">
    <path clip-path="url(#pae7aef2c59)" d="M 207.074388 263.073523 
L 232.742388 263.073523 
L 232.742388 285.536333 
L 207.074388 285.536333 
z
" style="fill:#feffbe;"/>
   </g>
   <g id="patch_21">
    <path clip-path="url(#pae7aef2c59)" d="M 284.078388 38.445424 
L 448.353588 38.445424 
L 448.353588 60.908233 
L 284.078388 60.908233 
z
" style="fill:#b3df72;"/>
   </g>
   <g id="patch_22">
    <path clip-path="url(#pae7aef2c59)" d="M 463.754388 83.371043 
L 515.090388 83.371043 
L 515.090388 105.833853 
L 463.754388 105.833853 
z
" style="fill:#b3df72;"/>
   </g>
   <g id="patch_23">
    <path clip-path="url(#pae7aef2c59)" d="M 474.021588 128.296663 
L 484.288788 128.296663 
L 484.288788 150.759473 
L 474.021588 150.759473 
z
" style="fill:#b3df72;"/>
   </g>
   <g id="patch_24">
    <path clip-path="url(#pae7aef2c59)" d="M 335.414388 173.222283 
L 412.418388 173.222283 
L 412.418388 195.685093 
L 335.414388 195.685093 
z
" style="fill:#b3df72;"/>
   </g>
   <g id="patch_25">
    <path clip-path="url(#pae7aef2c59)" d="M 350.815188 218.147903 
L 376.483188 218.147903 
L 376.483188 240.610713 
L 350.815188 240.610713 
z
" style="fill:#b3df72;"/>
   </g>
   <g id="patch_26">
    <path clip-path="url(#pae7aef2c59)" d="M 232.742388 263.073523 
L 386.750388 263.073523 
L 386.750388 285.536333 
L 232.742388 285.536333 
z
" style="fill:#b3df72;"/>
   </g>
   <g id="patch_27">
    <path clip-path="url(#pae7aef2c59)" d="M 448.353588 38.445424 
L 581.827188 38.445424 
L 581.827188 60.908233 
L 448.353588 60.908233 
z
" style="fill:#3faa59;"/>
   </g>
   <g id="patch_28">
    <path clip-path="url(#pae7aef2c59)" d="M 515.090388 83.371043 
L 581.827188 83.371043 
L 581.827188 105.833853 
L 515.090388 105.833853 
z
" style="fill:#3faa59;"/>
   </g>
   <g id="patch_29">
    <path clip-path="url(#pae7aef2c59)" d="M 484.288788 128.296663 
L 581.827188 128.296663 
L 581.827188 150.759473 
L 484.288788 150.759473 
z
" style="fill:#3faa59;"/>
   </g>
   <g id="patch_30">
    <path clip-path="url(#pae7aef2c59)" d="M 412.418388 173.222283 
L 581.827188 173.222283 
L 581.827188 195.685093 
L 412.418388 195.685093 
z
" style="fill:#3faa59;"/>
   </g>
   <g id="patch_31">
    <path clip-path="url(#pae7aef2c59)" d="M 376.483188 218.147903 
L 581.827188 218.147903 
L 581.827188 240.610713 
L 376.483188 240.610713 
z
" style="fill:#3faa59;"/>
   </g>
   <g id="patch_32">
    <path clip-path="url(#pae7aef2c59)" d="M 386.750388 263.073523 
L 581.827188 263.073523 
L 581.827188 285.536333 
L 386.750388 285.536333 
z
" style="fill:#3faa59;"/>
   </g>
   <g id="matplotlib.axis_1">
    <g id="ytick_1">
     <g id="line2d_1">
      <defs>
       <path d="M 0 0 
L -3.5 0 
" id="m1dcaee459a" style="stroke:#000000;stroke-width:0.8;"/>
      </defs>
      <g>
       <use style="stroke:#000000;stroke-width:0.8;" x="68.467188" xlink:href="#m1dcaee459a" y="49.676829"/>
      </g>
     </g>
     <g id="text_1">
      <!-- Question 1 -->
      <g transform="translate(7.2 53.476047)scale(0.1 -0.1)">
       <defs>
        <path d="M 2522 4238 
Q 1834 4238 1429 3725 
Q 1025 3213 1025 2328 
Q 1025 1447 1429 934 
Q 1834 422 2522 422 
Q 3209 422 3611 934 
Q 4013 1447 4013 2328 
Q 4013 3213 3611 3725 
Q 3209 4238 2522 4238 
z
M 3406 84 
L 4238 -825 
L 3475 -825 
L 2784 -78 
Q 2681 -84 2626 -87 
Q 2572 -91 2522 -91 
Q 1538 -91 948 567 
Q 359 1225 359 2328 
Q 359 3434 948 4092 
Q 1538 4750 2522 4750 
Q 3503 4750 4090 4092 
Q 4678 3434 4678 2328 
Q 4678 1516 4351 937 
Q 4025 359 3406 84 
z
" id="DejaVuSans-51" transform="scale(0.015625)"/>
        <path d="M 544 1381 
L 544 3500 
L 1119 3500 
L 1119 1403 
Q 1119 906 1312 657 
Q 1506 409 1894 409 
Q 2359 409 2629 706 
Q 2900 1003 2900 1516 
L 2900 3500 
L 3475 3500 
L 3475 0 
L 2900 0 
L 2900 538 
Q 2691 219 2414 64 
Q 2138 -91 1772 -91 
Q 1169 -91 856 284 
Q 544 659 544 1381 
z
M 1991 3584 
L 1991 3584 
z
" id="DejaVuSans-75" transform="scale(0.015625)"/>
        <path d="M 3597 1894 
L 3597 1613 
L 953 1613 
Q 991 1019 1311 708 
Q 1631 397 2203 397 
Q 2534 397 2845 478 
Q 3156 559 3463 722 
L 3463 178 
Q 3153 47 2828 -22 
Q 2503 -91 2169 -91 
Q 1331 -91 842 396 
Q 353 884 353 1716 
Q 353 2575 817 3079 
Q 1281 3584 2069 3584 
Q 2775 3584 3186 3129 
Q 3597 2675 3597 1894 
z
M 3022 2063 
Q 3016 2534 2758 2815 
Q 2500 3097 2075 3097 
Q 1594 3097 1305 2825 
Q 1016 2553 972 2059 
L 3022 2063 
z
" id="DejaVuSans-65" transform="scale(0.015625)"/>
        <path d="M 2834 3397 
L 2834 2853 
Q 2591 2978 2328 3040 
Q 2066 3103 1784 3103 
Q 1356 3103 1142 2972 
Q 928 2841 928 2578 
Q 928 2378 1081 2264 
Q 1234 2150 1697 2047 
L 1894 2003 
Q 2506 1872 2764 1633 
Q 3022 1394 3022 966 
Q 3022 478 2636 193 
Q 2250 -91 1575 -91 
Q 1294 -91 989 -36 
Q 684 19 347 128 
L 347 722 
Q 666 556 975 473 
Q 1284 391 1588 391 
Q 1994 391 2212 530 
Q 2431 669 2431 922 
Q 2431 1156 2273 1281 
Q 2116 1406 1581 1522 
L 1381 1569 
Q 847 1681 609 1914 
Q 372 2147 372 2553 
Q 372 3047 722 3315 
Q 1072 3584 1716 3584 
Q 2034 3584 2315 3537 
Q 2597 3491 2834 3397 
z
" id="DejaVuSans-73" transform="scale(0.015625)"/>
        <path d="M 1172 4494 
L 1172 3500 
L 2356 3500 
L 2356 3053 
L 1172 3053 
L 1172 1153 
Q 1172 725 1289 603 
Q 1406 481 1766 481 
L 2356 481 
L 2356 0 
L 1766 0 
Q 1100 0 847 248 
Q 594 497 594 1153 
L 594 3053 
L 172 3053 
L 172 3500 
L 594 3500 
L 594 4494 
L 1172 4494 
z
" id="DejaVuSans-74" transform="scale(0.015625)"/>
        <path d="M 603 3500 
L 1178 3500 
L 1178 0 
L 603 0 
L 603 3500 
z
M 603 4863 
L 1178 4863 
L 1178 4134 
L 603 4134 
L 603 4863 
z
" id="DejaVuSans-69" transform="scale(0.015625)"/>
        <path d="M 1959 3097 
Q 1497 3097 1228 2736 
Q 959 2375 959 1747 
Q 959 1119 1226 758 
Q 1494 397 1959 397 
Q 2419 397 2687 759 
Q 2956 1122 2956 1747 
Q 2956 2369 2687 2733 
Q 2419 3097 1959 3097 
z
M 1959 3584 
Q 2709 3584 3137 3096 
Q 3566 2609 3566 1747 
Q 3566 888 3137 398 
Q 2709 -91 1959 -91 
Q 1206 -91 779 398 
Q 353 888 353 1747 
Q 353 2609 779 3096 
Q 1206 3584 1959 3584 
z
" id="DejaVuSans-6f" transform="scale(0.015625)"/>
        <path d="M 3513 2113 
L 3513 0 
L 2938 0 
L 2938 2094 
Q 2938 2591 2744 2837 
Q 2550 3084 2163 3084 
Q 1697 3084 1428 2787 
Q 1159 2491 1159 1978 
L 1159 0 
L 581 0 
L 581 3500 
L 1159 3500 
L 1159 2956 
Q 1366 3272 1645 3428 
Q 1925 3584 2291 3584 
Q 2894 3584 3203 3211 
Q 3513 2838 3513 2113 
z
" id="DejaVuSans-6e" transform="scale(0.015625)"/>
        <path id="DejaVuSans-20" transform="scale(0.015625)"/>
        <path d="M 794 531 
L 1825 531 
L 1825 4091 
L 703 3866 
L 703 4441 
L 1819 4666 
L 2450 4666 
L 2450 531 
L 3481 531 
L 3481 0 
L 794 0 
L 794 531 
z
" id="DejaVuSans-31" transform="scale(0.015625)"/>
       </defs>
       <use xlink:href="#DejaVuSans-51"/>
       <use x="78.710938" xlink:href="#DejaVuSans-75"/>
       <use x="142.089844" xlink:href="#DejaVuSans-65"/>
       <use x="203.613281" xlink:href="#DejaVuSans-73"/>
       <use x="255.712891" xlink:href="#DejaVuSans-74"/>
       <use x="294.921875" xlink:href="#DejaVuSans-69"/>
       <use x="322.705078" xlink:href="#DejaVuSans-6f"/>
       <use x="383.886719" xlink:href="#DejaVuSans-6e"/>
       <use x="447.265625" xlink:href="#DejaVuSans-20"/>
       <use x="479.052734" xlink:href="#DejaVuSans-31"/>
      </g>
     </g>
    </g>
    <g id="ytick_2">
     <g id="line2d_2">
      <g>
       <use style="stroke:#000000;stroke-width:0.8;" x="68.467188" xlink:href="#m1dcaee459a" y="94.602448"/>
      </g>
     </g>
     <g id="text_2">
      <!-- Question 2 -->
      <g transform="translate(7.2 98.401667)scale(0.1 -0.1)">
       <defs>
        <path d="M 1228 531 
L 3431 531 
L 3431 0 
L 469 0 
L 469 531 
Q 828 903 1448 1529 
Q 2069 2156 2228 2338 
Q 2531 2678 2651 2914 
Q 2772 3150 2772 3378 
Q 2772 3750 2511 3984 
Q 2250 4219 1831 4219 
Q 1534 4219 1204 4116 
Q 875 4013 500 3803 
L 500 4441 
Q 881 4594 1212 4672 
Q 1544 4750 1819 4750 
Q 2544 4750 2975 4387 
Q 3406 4025 3406 3419 
Q 3406 3131 3298 2873 
Q 3191 2616 2906 2266 
Q 2828 2175 2409 1742 
Q 1991 1309 1228 531 
z
" id="DejaVuSans-32" transform="scale(0.015625)"/>
       </defs>
       <use xlink:href="#DejaVuSans-51"/>
       <use x="78.710938" xlink:href="#DejaVuSans-75"/>
       <use x="142.089844" xlink:href="#DejaVuSans-65"/>
       <use x="203.613281" xlink:href="#DejaVuSans-73"/>
       <use x="255.712891" xlink:href="#DejaVuSans-74"/>
       <use x="294.921875" xlink:href="#DejaVuSans-69"/>
       <use x="322.705078" xlink:href="#DejaVuSans-6f"/>
       <use x="383.886719" xlink:href="#DejaVuSans-6e"/>
       <use x="447.265625" xlink:href="#DejaVuSans-20"/>
       <use x="479.052734" xlink:href="#DejaVuSans-32"/>
      </g>
     </g>
    </g>
    <g id="ytick_3">
     <g id="line2d_3">
      <g>
       <use style="stroke:#000000;stroke-width:0.8;" x="68.467188" xlink:href="#m1dcaee459a" y="139.528068"/>
      </g>
     </g>
     <g id="text_3">
      <!-- Question 3 -->
      <g transform="translate(7.2 143.327287)scale(0.1 -0.1)">
       <defs>
        <path d="M 2597 2516 
Q 3050 2419 3304 2112 
Q 3559 1806 3559 1356 
Q 3559 666 3084 287 
Q 2609 -91 1734 -91 
Q 1441 -91 1130 -33 
Q 819 25 488 141 
L 488 750 
Q 750 597 1062 519 
Q 1375 441 1716 441 
Q 2309 441 2620 675 
Q 2931 909 2931 1356 
Q 2931 1769 2642 2001 
Q 2353 2234 1838 2234 
L 1294 2234 
L 1294 2753 
L 1863 2753 
Q 2328 2753 2575 2939 
Q 2822 3125 2822 3475 
Q 2822 3834 2567 4026 
Q 2313 4219 1838 4219 
Q 1578 4219 1281 4162 
Q 984 4106 628 3988 
L 628 4550 
Q 988 4650 1302 4700 
Q 1616 4750 1894 4750 
Q 2613 4750 3031 4423 
Q 3450 4097 3450 3541 
Q 3450 3153 3228 2886 
Q 3006 2619 2597 2516 
z
" id="DejaVuSans-33" transform="scale(0.015625)"/>
       </defs>
       <use xlink:href="#DejaVuSans-51"/>
       <use x="78.710938" xlink:href="#DejaVuSans-75"/>
       <use x="142.089844" xlink:href="#DejaVuSans-65"/>
       <use x="203.613281" xlink:href="#DejaVuSans-73"/>
       <use x="255.712891" xlink:href="#DejaVuSans-74"/>
       <use x="294.921875" xlink:href="#DejaVuSans-69"/>
       <use x="322.705078" xlink:href="#DejaVuSans-6f"/>
       <use x="383.886719" xlink:href="#DejaVuSans-6e"/>
       <use x="447.265625" xlink:href="#DejaVuSans-20"/>
       <use x="479.052734" xlink:href="#DejaVuSans-33"/>
      </g>
     </g>
    </g>
    <g id="ytick_4">
     <g id="line2d_4">
      <g>
       <use style="stroke:#000000;stroke-width:0.8;" x="68.467188" xlink:href="#m1dcaee459a" y="184.453688"/>
      </g>
     </g>
     <g id="text_4">
      <!-- Question 4 -->
      <g transform="translate(7.2 188.252907)scale(0.1 -0.1)">
       <defs>
        <path d="M 2419 4116 
L 825 1625 
L 2419 1625 
L 2419 4116 
z
M 2253 4666 
L 3047 4666 
L 3047 1625 
L 3713 1625 
L 3713 1100 
L 3047 1100 
L 3047 0 
L 2419 0 
L 2419 1100 
L 313 1100 
L 313 1709 
L 2253 4666 
z
" id="DejaVuSans-34" transform="scale(0.015625)"/>
       </defs>
       <use xlink:href="#DejaVuSans-51"/>
       <use x="78.710938" xlink:href="#DejaVuSans-75"/>
       <use x="142.089844" xlink:href="#DejaVuSans-65"/>
       <use x="203.613281" xlink:href="#DejaVuSans-73"/>
       <use x="255.712891" xlink:href="#DejaVuSans-74"/>
       <use x="294.921875" xlink:href="#DejaVuSans-69"/>
       <use x="322.705078" xlink:href="#DejaVuSans-6f"/>
       <use x="383.886719" xlink:href="#DejaVuSans-6e"/>
       <use x="447.265625" xlink:href="#DejaVuSans-20"/>
       <use x="479.052734" xlink:href="#DejaVuSans-34"/>
      </g>
     </g>
    </g>
    <g id="ytick_5">
     <g id="line2d_5">
      <g>
       <use style="stroke:#000000;stroke-width:0.8;" x="68.467188" xlink:href="#m1dcaee459a" y="229.379308"/>
      </g>
     </g>
     <g id="text_5">
      <!-- Question 5 -->
      <g transform="translate(7.2 233.178527)scale(0.1 -0.1)">
       <defs>
        <path d="M 691 4666 
L 3169 4666 
L 3169 4134 
L 1269 4134 
L 1269 2991 
Q 1406 3038 1543 3061 
Q 1681 3084 1819 3084 
Q 2600 3084 3056 2656 
Q 3513 2228 3513 1497 
Q 3513 744 3044 326 
Q 2575 -91 1722 -91 
Q 1428 -91 1123 -41 
Q 819 9 494 109 
L 494 744 
Q 775 591 1075 516 
Q 1375 441 1709 441 
Q 2250 441 2565 725 
Q 2881 1009 2881 1497 
Q 2881 1984 2565 2268 
Q 2250 2553 1709 2553 
Q 1456 2553 1204 2497 
Q 953 2441 691 2322 
L 691 4666 
z
" id="DejaVuSans-35" transform="scale(0.015625)"/>
       </defs>
       <use xlink:href="#DejaVuSans-51"/>
       <use x="78.710938" xlink:href="#DejaVuSans-75"/>
       <use x="142.089844" xlink:href="#DejaVuSans-65"/>
       <use x="203.613281" xlink:href="#DejaVuSans-73"/>
       <use x="255.712891" xlink:href="#DejaVuSans-74"/>
       <use x="294.921875" xlink:href="#DejaVuSans-69"/>
       <use x="322.705078" xlink:href="#DejaVuSans-6f"/>
       <use x="383.886719" xlink:href="#DejaVuSans-6e"/>
       <use x="447.265625" xlink:href="#DejaVuSans-20"/>
       <use x="479.052734" xlink:href="#DejaVuSans-35"/>
      </g>
     </g>
    </g>
    <g id="ytick_6">
     <g id="line2d_6">
      <g>
       <use style="stroke:#000000;stroke-width:0.8;" x="68.467188" xlink:href="#m1dcaee459a" y="274.304928"/>
      </g>
     </g>
     <g id="text_6">
      <!-- Question 6 -->
      <g transform="translate(7.2 278.104146)scale(0.1 -0.1)">
       <defs>
        <path d="M 2113 2584 
Q 1688 2584 1439 2293 
Q 1191 2003 1191 1497 
Q 1191 994 1439 701 
Q 1688 409 2113 409 
Q 2538 409 2786 701 
Q 3034 994 3034 1497 
Q 3034 2003 2786 2293 
Q 2538 2584 2113 2584 
z
M 3366 4563 
L 3366 3988 
Q 3128 4100 2886 4159 
Q 2644 4219 2406 4219 
Q 1781 4219 1451 3797 
Q 1122 3375 1075 2522 
Q 1259 2794 1537 2939 
Q 1816 3084 2150 3084 
Q 2853 3084 3261 2657 
Q 3669 2231 3669 1497 
Q 3669 778 3244 343 
Q 2819 -91 2113 -91 
Q 1303 -91 875 529 
Q 447 1150 447 2328 
Q 447 3434 972 4092 
Q 1497 4750 2381 4750 
Q 2619 4750 2861 4703 
Q 3103 4656 3366 4563 
z
" id="DejaVuSans-36" transform="scale(0.015625)"/>
       </defs>
       <use xlink:href="#DejaVuSans-51"/>
       <use x="78.710938" xlink:href="#DejaVuSans-75"/>
       <use x="142.089844" xlink:href="#DejaVuSans-65"/>
       <use x="203.613281" xlink:href="#DejaVuSans-73"/>
       <use x="255.712891" xlink:href="#DejaVuSans-74"/>
       <use x="294.921875" xlink:href="#DejaVuSans-69"/>
       <use x="322.705078" xlink:href="#DejaVuSans-6f"/>
       <use x="383.886719" xlink:href="#DejaVuSans-6e"/>
       <use x="447.265625" xlink:href="#DejaVuSans-20"/>
       <use x="479.052734" xlink:href="#DejaVuSans-36"/>
      </g>
     </g>
    </g>
   </g>
   <g id="patch_33">
    <path d="M 68.467188 297.890878 
L 68.467188 26.090878 
" style="fill:none;stroke:#000000;stroke-linecap:square;stroke-linejoin:miter;stroke-width:0.8;"/>
   </g>
   <g id="patch_34">
    <path d="M 581.827188 297.890878 
L 581.827188 26.090878 
" style="fill:none;stroke:#000000;stroke-linecap:square;stroke-linejoin:miter;stroke-width:0.8;"/>
   </g>
   <g id="patch_35">
    <path d="M 68.467188 297.890878 
L 581.827188 297.890878 
" style="fill:none;stroke:#000000;stroke-linecap:square;stroke-linejoin:miter;stroke-width:0.8;"/>
   </g>
   <g id="patch_36">
    <path d="M 68.467188 26.090878 
L 581.827188 26.090878 
" style="fill:none;stroke:#000000;stroke-linecap:square;stroke-linejoin:miter;stroke-width:0.8;"/>
   </g>
   <g id="text_7">
    <!-- 10 -->
    <g style="fill:#ffffff;" transform="translate(87.772688 52.436204)scale(0.1 -0.1)">
     <defs>
      <path d="M 2034 4250 
Q 1547 4250 1301 3770 
Q 1056 3291 1056 2328 
Q 1056 1369 1301 889 
Q 1547 409 2034 409 
Q 2525 409 2770 889 
Q 3016 1369 3016 2328 
Q 3016 3291 2770 3770 
Q 2525 4250 2034 4250 
z
M 2034 4750 
Q 2819 4750 3233 4129 
Q 3647 3509 3647 2328 
Q 3647 1150 3233 529 
Q 2819 -91 2034 -91 
Q 1250 -91 836 529 
Q 422 1150 422 2328 
Q 422 3509 836 4129 
Q 1250 4750 2034 4750 
z
" id="DejaVuSans-30" transform="scale(0.015625)"/>
     </defs>
     <use xlink:href="#DejaVuSans-31"/>
     <use x="63.623047" xlink:href="#DejaVuSans-30"/>
    </g>
   </g>
   <g id="text_8">
    <!-- 26 -->
    <g style="fill:#ffffff;" transform="translate(128.841488 97.361823)scale(0.1 -0.1)">
     <use xlink:href="#DejaVuSans-32"/>
     <use x="63.623047" xlink:href="#DejaVuSans-36"/>
    </g>
   </g>
   <g id="text_9">
    <!-- 35 -->
    <g style="fill:#ffffff;" transform="translate(151.942688 142.287443)scale(0.1 -0.1)">
     <use xlink:href="#DejaVuSans-33"/>
     <use x="63.623047" xlink:href="#DejaVuSans-35"/>
    </g>
   </g>
   <g id="text_10">
    <!-- 32 -->
    <g style="fill:#ffffff;" transform="translate(144.242288 187.213063)scale(0.1 -0.1)">
     <use xlink:href="#DejaVuSans-33"/>
     <use x="63.623047" xlink:href="#DejaVuSans-32"/>
    </g>
   </g>
   <g id="text_11">
    <!-- 21 -->
    <g style="fill:#ffffff;" transform="translate(116.007488 232.138683)scale(0.1 -0.1)">
     <use xlink:href="#DejaVuSans-32"/>
     <use x="63.623047" xlink:href="#DejaVuSans-31"/>
    </g>
   </g>
   <g id="text_12">
    <!-- 8 -->
    <g style="fill:#ffffff;" transform="translate(85.820338 277.064303)scale(0.1 -0.1)">
     <defs>
      <path d="M 2034 2216 
Q 1584 2216 1326 1975 
Q 1069 1734 1069 1313 
Q 1069 891 1326 650 
Q 1584 409 2034 409 
Q 2484 409 2743 651 
Q 3003 894 3003 1313 
Q 3003 1734 2745 1975 
Q 2488 2216 2034 2216 
z
M 1403 2484 
Q 997 2584 770 2862 
Q 544 3141 544 3541 
Q 544 4100 942 4425 
Q 1341 4750 2034 4750 
Q 2731 4750 3128 4425 
Q 3525 4100 3525 3541 
Q 3525 3141 3298 2862 
Q 3072 2584 2669 2484 
Q 3125 2378 3379 2068 
Q 3634 1759 3634 1313 
Q 3634 634 3220 271 
Q 2806 -91 2034 -91 
Q 1263 -91 848 271 
Q 434 634 434 1313 
Q 434 1759 690 2068 
Q 947 2378 1403 2484 
z
M 1172 3481 
Q 1172 3119 1398 2916 
Q 1625 2713 2034 2713 
Q 2441 2713 2670 2916 
Q 2900 3119 2900 3481 
Q 2900 3844 2670 4047 
Q 2441 4250 2034 4250 
Q 1625 4250 1398 4047 
Q 1172 3844 1172 3481 
z
" id="DejaVuSans-38" transform="scale(0.015625)"/>
     </defs>
     <use xlink:href="#DejaVuSans-38"/>
    </g>
   </g>
   <g id="text_13">
    <!-- 15 -->
    <g style="fill:#ffffff;" transform="translate(151.942688 52.436204)scale(0.1 -0.1)">
     <use xlink:href="#DejaVuSans-31"/>
     <use x="63.623047" xlink:href="#DejaVuSans-35"/>
    </g>
   </g>
   <g id="text_14">
    <!-- 22 -->
    <g style="fill:#ffffff;" transform="translate(252.047888 97.361823)scale(0.1 -0.1)">
     <use xlink:href="#DejaVuSans-32"/>
     <use x="63.623047" xlink:href="#DejaVuSans-32"/>
    </g>
   </g>
   <g id="text_15">
    <!-- 37 -->
    <g style="fill:#ffffff;" transform="translate(336.752288 142.287443)scale(0.1 -0.1)">
     <defs>
      <path d="M 525 4666 
L 3525 4666 
L 3525 4397 
L 1831 0 
L 1172 0 
L 2766 4134 
L 525 4134 
L 525 4666 
z
" id="DejaVuSans-37" transform="scale(0.015625)"/>
     </defs>
     <use xlink:href="#DejaVuSans-33"/>
     <use x="63.623047" xlink:href="#DejaVuSans-37"/>
    </g>
   </g>
   <g id="text_16">
    <!-- 11 -->
    <g style="fill:#ffffff;" transform="translate(254.614688 187.213063)scale(0.1 -0.1)">
     <use xlink:href="#DejaVuSans-31"/>
     <use x="63.623047" xlink:href="#DejaVuSans-31"/>
    </g>
   </g>
   <g id="text_17">
    <!-- 29 -->
    <g style="fill:#ffffff;" transform="translate(244.347488 232.138683)scale(0.1 -0.1)">
     <defs>
      <path d="M 703 97 
L 703 672 
Q 941 559 1184 500 
Q 1428 441 1663 441 
Q 2288 441 2617 861 
Q 2947 1281 2994 2138 
Q 2813 1869 2534 1725 
Q 2256 1581 1919 1581 
Q 1219 1581 811 2004 
Q 403 2428 403 3163 
Q 403 3881 828 4315 
Q 1253 4750 1959 4750 
Q 2769 4750 3195 4129 
Q 3622 3509 3622 2328 
Q 3622 1225 3098 567 
Q 2575 -91 1691 -91 
Q 1453 -91 1209 -44 
Q 966 3 703 97 
z
M 1959 2075 
Q 2384 2075 2632 2365 
Q 2881 2656 2881 3163 
Q 2881 3666 2632 3958 
Q 2384 4250 1959 4250 
Q 1534 4250 1286 3958 
Q 1038 3666 1038 3163 
Q 1038 2656 1286 2365 
Q 1534 2075 1959 2075 
z
" id="DejaVuSans-39" transform="scale(0.015625)"/>
     </defs>
     <use xlink:href="#DejaVuSans-32"/>
     <use x="63.623047" xlink:href="#DejaVuSans-39"/>
    </g>
   </g>
   <g id="text_18">
    <!-- 19 -->
    <g style="fill:#ffffff;" transform="translate(151.942688 277.064303)scale(0.1 -0.1)">
     <use xlink:href="#DejaVuSans-31"/>
     <use x="63.623047" xlink:href="#DejaVuSans-39"/>
    </g>
   </g>
   <g id="text_19">
    <!-- 17 -->
    <g style="fill:#a9a9a9;" transform="translate(234.080288 52.436204)scale(0.1 -0.1)">
     <use xlink:href="#DejaVuSans-31"/>
     <use x="63.623047" xlink:href="#DejaVuSans-37"/>
    </g>
   </g>
   <g id="text_20">
    <!-- 29 -->
    <g style="fill:#a9a9a9;" transform="translate(382.954688 97.361823)scale(0.1 -0.1)">
     <use xlink:href="#DejaVuSans-32"/>
     <use x="63.623047" xlink:href="#DejaVuSans-39"/>
    </g>
   </g>
   <g id="text_21">
    <!-- 7 -->
    <g style="fill:#a9a9a9;" transform="translate(452.872738 142.287443)scale(0.1 -0.1)">
     <use xlink:href="#DejaVuSans-37"/>
    </g>
   </g>
   <g id="text_22">
    <!-- 9 -->
    <g style="fill:#a9a9a9;" transform="translate(309.131938 187.213063)scale(0.1 -0.1)">
     <use xlink:href="#DejaVuSans-39"/>
    </g>
   </g>
   <g id="text_23">
    <!-- 5 -->
    <g style="fill:#a9a9a9;" transform="translate(334.799938 232.138683)scale(0.1 -0.1)">
     <use xlink:href="#DejaVuSans-35"/>
    </g>
   </g>
   <g id="text_24">
    <!-- 5 -->
    <g style="fill:#a9a9a9;" transform="translate(216.727138 277.064303)scale(0.1 -0.1)">
     <use xlink:href="#DejaVuSans-35"/>
    </g>
   </g>
   <g id="text_25">
    <!-- 32 -->
    <g style="fill:#ffffff;" transform="translate(359.853488 52.436204)scale(0.1 -0.1)">
     <use xlink:href="#DejaVuSans-33"/>
     <use x="63.623047" xlink:href="#DejaVuSans-32"/>
    </g>
   </g>
   <g id="text_26">
    <!-- 10 -->
    <g style="fill:#ffffff;" transform="translate(483.059888 97.361823)scale(0.1 -0.1)">
     <use xlink:href="#DejaVuSans-31"/>
     <use x="63.623047" xlink:href="#DejaVuSans-30"/>
    </g>
   </g>
   <g id="text_27">
    <!-- 2 -->
    <g style="fill:#ffffff;" transform="translate(475.973938 142.287443)scale(0.1 -0.1)">
     <use xlink:href="#DejaVuSans-32"/>
    </g>
   </g>
   <g id="text_28">
    <!-- 15 -->
    <g style="fill:#ffffff;" transform="translate(367.553888 187.213063)scale(0.1 -0.1)">
     <use xlink:href="#DejaVuSans-31"/>
     <use x="63.623047" xlink:href="#DejaVuSans-35"/>
    </g>
   </g>
   <g id="text_29">
    <!-- 5 -->
    <g style="fill:#ffffff;" transform="translate(360.467938 232.138683)scale(0.1 -0.1)">
     <use xlink:href="#DejaVuSans-35"/>
    </g>
   </g>
   <g id="text_30">
    <!-- 30 -->
    <g style="fill:#ffffff;" transform="translate(303.383888 277.064303)scale(0.1 -0.1)">
     <use xlink:href="#DejaVuSans-33"/>
     <use x="63.623047" xlink:href="#DejaVuSans-30"/>
    </g>
   </g>
   <g id="text_31">
    <!-- 26 -->
    <g style="fill:#ffffff;" transform="translate(508.727888 52.436204)scale(0.1 -0.1)">
     <use xlink:href="#DejaVuSans-32"/>
     <use x="63.623047" xlink:href="#DejaVuSans-36"/>
    </g>
   </g>
   <g id="text_32">
    <!-- 13 -->
    <g style="fill:#ffffff;" transform="translate(542.096288 97.361823)scale(0.1 -0.1)">
     <use xlink:href="#DejaVuSans-31"/>
     <use x="63.623047" xlink:href="#DejaVuSans-33"/>
    </g>
   </g>
   <g id="text_33">
    <!-- 19 -->
    <g style="fill:#ffffff;" transform="translate(526.695488 142.287443)scale(0.1 -0.1)">
     <use xlink:href="#DejaVuSans-31"/>
     <use x="63.623047" xlink:href="#DejaVuSans-39"/>
    </g>
   </g>
   <g id="text_34">
    <!-- 33 -->
    <g style="fill:#ffffff;" transform="translate(490.760288 187.213063)scale(0.1 -0.1)">
     <use xlink:href="#DejaVuSans-33"/>
     <use x="63.623047" xlink:href="#DejaVuSans-33"/>
    </g>
   </g>
   <g id="text_35">
    <!-- 40 -->
    <g style="fill:#ffffff;" transform="translate(472.792688 232.138683)scale(0.1 -0.1)">
     <use xlink:href="#DejaVuSans-34"/>
     <use x="63.623047" xlink:href="#DejaVuSans-30"/>
    </g>
   </g>
   <g id="text_36">
    <!-- 38 -->
    <g style="fill:#ffffff;" transform="translate(477.926288 277.064303)scale(0.1 -0.1)">
     <use xlink:href="#DejaVuSans-33"/>
     <use x="63.623047" xlink:href="#DejaVuSans-38"/>
    </g>
   </g>
   <g id="legend_1">
    <g id="patch_37">
     <path d="M 74.298188 21.925878 
L 568.924477 21.925878 
Q 570.590477 21.925878 570.590477 20.259878 
L 570.590477 8.866 
Q 570.590477 7.2 568.924477 7.2 
L 74.298188 7.2 
Q 72.632188 7.2 72.632188 8.866 
L 72.632188 20.259878 
Q 72.632188 21.925878 74.298188 21.925878 
z
" style="fill:#ffffff;opacity:0.8;stroke:#cccccc;stroke-linejoin:miter;"/>
    </g>
    <g id="patch_38">
     <path d="M 75.964188 16.861498 
L 92.624188 16.861498 
L 92.624188 11.030498 
L 75.964188 11.030498 
z
" style="fill:#e54e35;"/>
    </g>
    <g id="text_37">
     <!-- Strongly disagree -->
     <g transform="translate(99.288188 16.861498)scale(0.0833 -0.0833)">
      <defs>
       <path d="M 3425 4513 
L 3425 3897 
Q 3066 4069 2747 4153 
Q 2428 4238 2131 4238 
Q 1616 4238 1336 4038 
Q 1056 3838 1056 3469 
Q 1056 3159 1242 3001 
Q 1428 2844 1947 2747 
L 2328 2669 
Q 3034 2534 3370 2195 
Q 3706 1856 3706 1288 
Q 3706 609 3251 259 
Q 2797 -91 1919 -91 
Q 1588 -91 1214 -16 
Q 841 59 441 206 
L 441 856 
Q 825 641 1194 531 
Q 1563 422 1919 422 
Q 2459 422 2753 634 
Q 3047 847 3047 1241 
Q 3047 1584 2836 1778 
Q 2625 1972 2144 2069 
L 1759 2144 
Q 1053 2284 737 2584 
Q 422 2884 422 3419 
Q 422 4038 858 4394 
Q 1294 4750 2059 4750 
Q 2388 4750 2728 4690 
Q 3069 4631 3425 4513 
z
" id="DejaVuSans-53" transform="scale(0.015625)"/>
       <path d="M 2631 2963 
Q 2534 3019 2420 3045 
Q 2306 3072 2169 3072 
Q 1681 3072 1420 2755 
Q 1159 2438 1159 1844 
L 1159 0 
L 581 0 
L 581 3500 
L 1159 3500 
L 1159 2956 
Q 1341 3275 1631 3429 
Q 1922 3584 2338 3584 
Q 2397 3584 2469 3576 
Q 2541 3569 2628 3553 
L 2631 2963 
z
" id="DejaVuSans-72" transform="scale(0.015625)"/>
       <path d="M 2906 1791 
Q 2906 2416 2648 2759 
Q 2391 3103 1925 3103 
Q 1463 3103 1205 2759 
Q 947 2416 947 1791 
Q 947 1169 1205 825 
Q 1463 481 1925 481 
Q 2391 481 2648 825 
Q 2906 1169 2906 1791 
z
M 3481 434 
Q 3481 -459 3084 -895 
Q 2688 -1331 1869 -1331 
Q 1566 -1331 1297 -1286 
Q 1028 -1241 775 -1147 
L 775 -588 
Q 1028 -725 1275 -790 
Q 1522 -856 1778 -856 
Q 2344 -856 2625 -561 
Q 2906 -266 2906 331 
L 2906 616 
Q 2728 306 2450 153 
Q 2172 0 1784 0 
Q 1141 0 747 490 
Q 353 981 353 1791 
Q 353 2603 747 3093 
Q 1141 3584 1784 3584 
Q 2172 3584 2450 3431 
Q 2728 3278 2906 2969 
L 2906 3500 
L 3481 3500 
L 3481 434 
z
" id="DejaVuSans-67" transform="scale(0.015625)"/>
       <path d="M 603 4863 
L 1178 4863 
L 1178 0 
L 603 0 
L 603 4863 
z
" id="DejaVuSans-6c" transform="scale(0.015625)"/>
       <path d="M 2059 -325 
Q 1816 -950 1584 -1140 
Q 1353 -1331 966 -1331 
L 506 -1331 
L 506 -850 
L 844 -850 
Q 1081 -850 1212 -737 
Q 1344 -625 1503 -206 
L 1606 56 
L 191 3500 
L 800 3500 
L 1894 763 
L 2988 3500 
L 3597 3500 
L 2059 -325 
z
" id="DejaVuSans-79" transform="scale(0.015625)"/>
       <path d="M 2906 2969 
L 2906 4863 
L 3481 4863 
L 3481 0 
L 2906 0 
L 2906 525 
Q 2725 213 2448 61 
Q 2172 -91 1784 -91 
Q 1150 -91 751 415 
Q 353 922 353 1747 
Q 353 2572 751 3078 
Q 1150 3584 1784 3584 
Q 2172 3584 2448 3432 
Q 2725 3281 2906 2969 
z
M 947 1747 
Q 947 1113 1208 752 
Q 1469 391 1925 391 
Q 2381 391 2643 752 
Q 2906 1113 2906 1747 
Q 2906 2381 2643 2742 
Q 2381 3103 1925 3103 
Q 1469 3103 1208 2742 
Q 947 2381 947 1747 
z
" id="DejaVuSans-64" transform="scale(0.015625)"/>
       <path d="M 2194 1759 
Q 1497 1759 1228 1600 
Q 959 1441 959 1056 
Q 959 750 1161 570 
Q 1363 391 1709 391 
Q 2188 391 2477 730 
Q 2766 1069 2766 1631 
L 2766 1759 
L 2194 1759 
z
M 3341 1997 
L 3341 0 
L 2766 0 
L 2766 531 
Q 2569 213 2275 61 
Q 1981 -91 1556 -91 
Q 1019 -91 701 211 
Q 384 513 384 1019 
Q 384 1609 779 1909 
Q 1175 2209 1959 2209 
L 2766 2209 
L 2766 2266 
Q 2766 2663 2505 2880 
Q 2244 3097 1772 3097 
Q 1472 3097 1187 3025 
Q 903 2953 641 2809 
L 641 3341 
Q 956 3463 1253 3523 
Q 1550 3584 1831 3584 
Q 2591 3584 2966 3190 
Q 3341 2797 3341 1997 
z
" id="DejaVuSans-61" transform="scale(0.015625)"/>
      </defs>
      <use xlink:href="#DejaVuSans-53"/>
      <use x="63.476562" xlink:href="#DejaVuSans-74"/>
      <use x="102.685547" xlink:href="#DejaVuSans-72"/>
      <use x="141.548828" xlink:href="#DejaVuSans-6f"/>
      <use x="202.730469" xlink:href="#DejaVuSans-6e"/>
      <use x="266.109375" xlink:href="#DejaVuSans-67"/>
      <use x="329.585938" xlink:href="#DejaVuSans-6c"/>
      <use x="357.369141" xlink:href="#DejaVuSans-79"/>
      <use x="416.548828" xlink:href="#DejaVuSans-20"/>
      <use x="448.335938" xlink:href="#DejaVuSans-64"/>
      <use x="511.8125" xlink:href="#DejaVuSans-69"/>
      <use x="539.595703" xlink:href="#DejaVuSans-73"/>
      <use x="591.695312" xlink:href="#DejaVuSans-61"/>
      <use x="652.974609" xlink:href="#DejaVuSans-67"/>
      <use x="716.451172" xlink:href="#DejaVuSans-72"/>
      <use x="755.314453" xlink:href="#DejaVuSans-65"/>
      <use x="816.837891" xlink:href="#DejaVuSans-65"/>
     </g>
    </g>
    <g id="patch_39">
     <path d="M 189.118127 16.861498 
L 205.778127 16.861498 
L 205.778127 11.030498 
L 189.118127 11.030498 
z
" style="fill:#fdbb6c;"/>
    </g>
    <g id="text_38">
     <!-- Disagree -->
     <g transform="translate(212.442127 16.861498)scale(0.0833 -0.0833)">
      <defs>
       <path d="M 1259 4147 
L 1259 519 
L 2022 519 
Q 2988 519 3436 956 
Q 3884 1394 3884 2338 
Q 3884 3275 3436 3711 
Q 2988 4147 2022 4147 
L 1259 4147 
z
M 628 4666 
L 1925 4666 
Q 3281 4666 3915 4102 
Q 4550 3538 4550 2338 
Q 4550 1131 3912 565 
Q 3275 0 1925 0 
L 628 0 
L 628 4666 
z
" id="DejaVuSans-44" transform="scale(0.015625)"/>
      </defs>
      <use xlink:href="#DejaVuSans-44"/>
      <use x="77.001953" xlink:href="#DejaVuSans-69"/>
      <use x="104.785156" xlink:href="#DejaVuSans-73"/>
      <use x="156.884766" xlink:href="#DejaVuSans-61"/>
      <use x="218.164062" xlink:href="#DejaVuSans-67"/>
      <use x="281.640625" xlink:href="#DejaVuSans-72"/>
      <use x="320.503906" xlink:href="#DejaVuSans-65"/>
      <use x="382.027344" xlink:href="#DejaVuSans-65"/>
     </g>
    </g>
    <g id="patch_40">
     <path d="M 266.050883 16.861498 
L 282.710883 16.861498 
L 282.710883 11.030498 
L 266.050883 11.030498 
z
" style="fill:#feffbe;"/>
    </g>
    <g id="text_39">
     <!-- Neither agree nor disagree -->
     <g transform="translate(289.374883 16.861498)scale(0.0833 -0.0833)">
      <defs>
       <path d="M 628 4666 
L 1478 4666 
L 3547 763 
L 3547 4666 
L 4159 4666 
L 4159 0 
L 3309 0 
L 1241 3903 
L 1241 0 
L 628 0 
L 628 4666 
z
" id="DejaVuSans-4e" transform="scale(0.015625)"/>
       <path d="M 3513 2113 
L 3513 0 
L 2938 0 
L 2938 2094 
Q 2938 2591 2744 2837 
Q 2550 3084 2163 3084 
Q 1697 3084 1428 2787 
Q 1159 2491 1159 1978 
L 1159 0 
L 581 0 
L 581 4863 
L 1159 4863 
L 1159 2956 
Q 1366 3272 1645 3428 
Q 1925 3584 2291 3584 
Q 2894 3584 3203 3211 
Q 3513 2838 3513 2113 
z
" id="DejaVuSans-68" transform="scale(0.015625)"/>
      </defs>
      <use xlink:href="#DejaVuSans-4e"/>
      <use x="74.804688" xlink:href="#DejaVuSans-65"/>
      <use x="136.328125" xlink:href="#DejaVuSans-69"/>
      <use x="164.111328" xlink:href="#DejaVuSans-74"/>
      <use x="203.320312" xlink:href="#DejaVuSans-68"/>
      <use x="266.699219" xlink:href="#DejaVuSans-65"/>
      <use x="328.222656" xlink:href="#DejaVuSans-72"/>
      <use x="369.335938" xlink:href="#DejaVuSans-20"/>
      <use x="401.123047" xlink:href="#DejaVuSans-61"/>
      <use x="462.402344" xlink:href="#DejaVuSans-67"/>
      <use x="525.878906" xlink:href="#DejaVuSans-72"/>
      <use x="564.742188" xlink:href="#DejaVuSans-65"/>
      <use x="626.265625" xlink:href="#DejaVuSans-65"/>
      <use x="687.789062" xlink:href="#DejaVuSans-20"/>
      <use x="719.576172" xlink:href="#DejaVuSans-6e"/>
      <use x="782.955078" xlink:href="#DejaVuSans-6f"/>
      <use x="844.136719" xlink:href="#DejaVuSans-72"/>
      <use x="885.25" xlink:href="#DejaVuSans-20"/>
      <use x="917.037109" xlink:href="#DejaVuSans-64"/>
      <use x="980.513672" xlink:href="#DejaVuSans-69"/>
      <use x="1008.296875" xlink:href="#DejaVuSans-73"/>
      <use x="1060.396484" xlink:href="#DejaVuSans-61"/>
      <use x="1121.675781" xlink:href="#DejaVuSans-67"/>
      <use x="1185.152344" xlink:href="#DejaVuSans-72"/>
      <use x="1224.015625" xlink:href="#DejaVuSans-65"/>
      <use x="1285.539062" xlink:href="#DejaVuSans-65"/>
     </g>
    </g>
    <g id="patch_41">
     <path d="M 418.247792 16.861498 
L 434.907792 16.861498 
L 434.907792 11.030498 
L 418.247792 11.030498 
z
" style="fill:#b3df72;"/>
    </g>
    <g id="text_40">
     <!-- Agree -->
     <g transform="translate(441.571792 16.861498)scale(0.0833 -0.0833)">
      <defs>
       <path d="M 2188 4044 
L 1331 1722 
L 3047 1722 
L 2188 4044 
z
M 1831 4666 
L 2547 4666 
L 4325 0 
L 3669 0 
L 3244 1197 
L 1141 1197 
L 716 0 
L 50 0 
L 1831 4666 
z
" id="DejaVuSans-41" transform="scale(0.015625)"/>
      </defs>
      <use xlink:href="#DejaVuSans-41"/>
      <use x="68.408203" xlink:href="#DejaVuSans-67"/>
      <use x="131.884766" xlink:href="#DejaVuSans-72"/>
      <use x="170.748047" xlink:href="#DejaVuSans-65"/>
      <use x="232.271484" xlink:href="#DejaVuSans-65"/>
     </g>
    </g>
    <g id="patch_42">
     <path d="M 482.706373 16.861498 
L 499.366373 16.861498 
L 499.366373 11.030498 
L 482.706373 11.030498 
z
" style="fill:#3faa59;"/>
    </g>
    <g id="text_41">
     <!-- Strongly agree -->
     <g transform="translate(506.030373 16.861498)scale(0.0833 -0.0833)">
      <use xlink:href="#DejaVuSans-53"/>
      <use x="63.476562" xlink:href="#DejaVuSans-74"/>
      <use x="102.685547" xlink:href="#DejaVuSans-72"/>
      <use x="141.548828" xlink:href="#DejaVuSans-6f"/>
      <use x="202.730469" xlink:href="#DejaVuSans-6e"/>
      <use x="266.109375" xlink:href="#DejaVuSans-67"/>
      <use x="329.585938" xlink:href="#DejaVuSans-6c"/>
      <use x="357.369141" xlink:href="#DejaVuSans-79"/>
      <use x="416.548828" xlink:href="#DejaVuSans-20"/>
      <use x="448.335938" xlink:href="#DejaVuSans-61"/>
      <use x="509.615234" xlink:href="#DejaVuSans-67"/>
      <use x="573.091797" xlink:href="#DejaVuSans-72"/>
      <use x="611.955078" xlink:href="#DejaVuSans-65"/>
      <use x="673.478516" xlink:href="#DejaVuSans-65"/>
     </g>
    </g>
   </g>
  </g>
 </g>
 <defs>
  <clipPath id="pae7aef2c59">
   <rect height="271.8" width="513.36" x="68.467188" y="26.090878"/>
  </clipPath>
 </defs>
</svg>
