<?xml version="1.0" encoding="utf-8" standalone="no"?>
<!DOCTYPE svg PUBLIC "-//W3C//DTD SVG 1.1//EN"
  "http://www.w3.org/Graphics/SVG/1.1/DTD/svg11.dtd">
<svg height="285.774978pt" version="1.1" viewBox="0 0 427.227557 285.774978" width="427.227557pt" xmlns="http://www.w3.org/2000/svg" xmlns:xlink="http://www.w3.org/1999/xlink">
 <metadata>
  <rdf:RDF xmlns:cc="http://creativecommons.org/ns#" xmlns:dc="http://purl.org/dc/elements/1.1/" xmlns:rdf="http://www.w3.org/1999/02/22-rdf-syntax-ns#">
   <cc:Work>
    <dc:type rdf:resource="http://purl.org/dc/dcmitype/StillImage"/>
    <dc:date>2021-08-27T10:22:07.442446</dc:date>
    <dc:format>image/svg+xml</dc:format>
    <dc:creator>
     <cc:Agent>
      <dc:title>Matplotlib v3.4.2, https://matplotlib.org/</dc:title>
     </cc:Agent>
    </dc:creator>
   </cc:Work>
  </rdf:RDF>
 </metadata>
 <defs>
  <style type="text/css">*{stroke-linecap:butt;stroke-linejoin:round;}</style>
 </defs>
 <g id="figure_1">
  <g id="patch_1">
   <path d="M 0 285.774978 
L 427.227557 285.774978 
L 427.227557 0 
L 0 0 
z
" style="fill:none;"/>
  </g>
  <g id="axes_1">
   <g id="patch_2">
    <path d="M 7.2 278.574978 
L 417.068182 278.574978 
L 417.068182 15.821094 
L 7.2 15.821094 
z
" style="fill:#ffffff;"/>
   </g>
   <g id="matplotlib.axis_1">
    <g id="xtick_1">
     <g id="line2d_1">
      <defs>
       <path d="M 0 0 
L 0 3.5 
" id="mccf08dcdcc" style="stroke:#000000;stroke-width:0.8;"/>
      </defs>
      <g>
       <use style="stroke:#000000;stroke-width:0.8;" x="25.830372" xlink:href="#mccf08dcdcc" y="244.916423"/>
      </g>
     </g>
     <g id="text_1">
      <!-- −10.0 -->
      <g transform="translate(10.507716 259.51486)scale(0.1 -0.1)">
       <defs>
        <path d="M 678 2272 
L 4684 2272 
L 4684 1741 
L 678 1741 
L 678 2272 
z
" id="DejaVuSans-2212" transform="scale(0.015625)"/>
        <path d="M 794 531 
L 1825 531 
L 1825 4091 
L 703 3866 
L 703 4441 
L 1819 4666 
L 2450 4666 
L 2450 531 
L 3481 531 
L 3481 0 
L 794 0 
L 794 531 
z
" id="DejaVuSans-31" transform="scale(0.015625)"/>
        <path d="M 2034 4250 
Q 1547 4250 1301 3770 
Q 1056 3291 1056 2328 
Q 1056 1369 1301 889 
Q 1547 409 2034 409 
Q 2525 409 2770 889 
Q 3016 1369 3016 2328 
Q 3016 3291 2770 3770 
Q 2525 4250 2034 4250 
z
M 2034 4750 
Q 2819 4750 3233 4129 
Q 3647 3509 3647 2328 
Q 3647 1150 3233 529 
Q 2819 -91 2034 -91 
Q 1250 -91 836 529 
Q 422 1150 422 2328 
Q 422 3509 836 4129 
Q 1250 4750 2034 4750 
z
" id="DejaVuSans-30" transform="scale(0.015625)"/>
        <path d="M 684 794 
L 1344 794 
L 1344 0 
L 684 0 
L 684 794 
z
" id="DejaVuSans-2e" transform="scale(0.015625)"/>
       </defs>
       <use xlink:href="#DejaVuSans-2212"/>
       <use x="83.789062" xlink:href="#DejaVuSans-31"/>
       <use x="147.412109" xlink:href="#DejaVuSans-30"/>
       <use x="211.035156" xlink:href="#DejaVuSans-2e"/>
       <use x="242.822266" xlink:href="#DejaVuSans-30"/>
      </g>
     </g>
    </g>
    <g id="xtick_2">
     <g id="line2d_2">
      <g>
       <use style="stroke:#000000;stroke-width:0.8;" x="72.406302" xlink:href="#mccf08dcdcc" y="244.916423"/>
      </g>
     </g>
     <g id="text_2">
      <!-- −7.5 -->
      <g transform="translate(60.264895 259.51486)scale(0.1 -0.1)">
       <defs>
        <path d="M 525 4666 
L 3525 4666 
L 3525 4397 
L 1831 0 
L 1172 0 
L 2766 4134 
L 525 4134 
L 525 4666 
z
" id="DejaVuSans-37" transform="scale(0.015625)"/>
        <path d="M 691 4666 
L 3169 4666 
L 3169 4134 
L 1269 4134 
L 1269 2991 
Q 1406 3038 1543 3061 
Q 1681 3084 1819 3084 
Q 2600 3084 3056 2656 
Q 3513 2228 3513 1497 
Q 3513 744 3044 326 
Q 2575 -91 1722 -91 
Q 1428 -91 1123 -41 
Q 819 9 494 109 
L 494 744 
Q 775 591 1075 516 
Q 1375 441 1709 441 
Q 2250 441 2565 725 
Q 2881 1009 2881 1497 
Q 2881 1984 2565 2268 
Q 2250 2553 1709 2553 
Q 1456 2553 1204 2497 
Q 953 2441 691 2322 
L 691 4666 
z
" id="DejaVuSans-35" transform="scale(0.015625)"/>
       </defs>
       <use xlink:href="#DejaVuSans-2212"/>
       <use x="83.789062" xlink:href="#DejaVuSans-37"/>
       <use x="147.412109" xlink:href="#DejaVuSans-2e"/>
       <use x="179.199219" xlink:href="#DejaVuSans-35"/>
      </g>
     </g>
    </g>
    <g id="xtick_3">
     <g id="line2d_3">
      <g>
       <use style="stroke:#000000;stroke-width:0.8;" x="118.982231" xlink:href="#mccf08dcdcc" y="244.916423"/>
      </g>
     </g>
     <g id="text_3">
      <!-- −5.0 -->
      <g transform="translate(106.840825 259.51486)scale(0.1 -0.1)">
       <use xlink:href="#DejaVuSans-2212"/>
       <use x="83.789062" xlink:href="#DejaVuSans-35"/>
       <use x="147.412109" xlink:href="#DejaVuSans-2e"/>
       <use x="179.199219" xlink:href="#DejaVuSans-30"/>
      </g>
     </g>
    </g>
    <g id="xtick_4">
     <g id="line2d_4">
      <g>
       <use style="stroke:#000000;stroke-width:0.8;" x="165.558161" xlink:href="#mccf08dcdcc" y="244.916423"/>
      </g>
     </g>
     <g id="text_4">
      <!-- −2.5 -->
      <g transform="translate(153.416755 259.51486)scale(0.1 -0.1)">
       <defs>
        <path d="M 1228 531 
L 3431 531 
L 3431 0 
L 469 0 
L 469 531 
Q 828 903 1448 1529 
Q 2069 2156 2228 2338 
Q 2531 2678 2651 2914 
Q 2772 3150 2772 3378 
Q 2772 3750 2511 3984 
Q 2250 4219 1831 4219 
Q 1534 4219 1204 4116 
Q 875 4013 500 3803 
L 500 4441 
Q 881 4594 1212 4672 
Q 1544 4750 1819 4750 
Q 2544 4750 2975 4387 
Q 3406 4025 3406 3419 
Q 3406 3131 3298 2873 
Q 3191 2616 2906 2266 
Q 2828 2175 2409 1742 
Q 1991 1309 1228 531 
z
" id="DejaVuSans-32" transform="scale(0.015625)"/>
       </defs>
       <use xlink:href="#DejaVuSans-2212"/>
       <use x="83.789062" xlink:href="#DejaVuSans-32"/>
       <use x="147.412109" xlink:href="#DejaVuSans-2e"/>
       <use x="179.199219" xlink:href="#DejaVuSans-35"/>
      </g>
     </g>
    </g>
    <g id="xtick_5">
     <g id="line2d_5">
      <g>
       <use style="stroke:#000000;stroke-width:0.8;" x="212.134091" xlink:href="#mccf08dcdcc" y="244.916423"/>
      </g>
     </g>
     <g id="text_5">
      <!-- 0.0 -->
      <g transform="translate(204.182528 259.51486)scale(0.1 -0.1)">
       <use xlink:href="#DejaVuSans-30"/>
       <use x="63.623047" xlink:href="#DejaVuSans-2e"/>
       <use x="95.410156" xlink:href="#DejaVuSans-30"/>
      </g>
     </g>
    </g>
    <g id="xtick_6">
     <g id="line2d_6">
      <g>
       <use style="stroke:#000000;stroke-width:0.8;" x="258.710021" xlink:href="#mccf08dcdcc" y="244.916423"/>
      </g>
     </g>
     <g id="text_6">
      <!-- 2.5 -->
      <g transform="translate(250.758458 259.51486)scale(0.1 -0.1)">
       <use xlink:href="#DejaVuSans-32"/>
       <use x="63.623047" xlink:href="#DejaVuSans-2e"/>
       <use x="95.410156" xlink:href="#DejaVuSans-35"/>
      </g>
     </g>
    </g>
    <g id="xtick_7">
     <g id="line2d_7">
      <g>
       <use style="stroke:#000000;stroke-width:0.8;" x="305.28595" xlink:href="#mccf08dcdcc" y="244.916423"/>
      </g>
     </g>
     <g id="text_7">
      <!-- 5.0 -->
      <g transform="translate(297.334388 259.51486)scale(0.1 -0.1)">
       <use xlink:href="#DejaVuSans-35"/>
       <use x="63.623047" xlink:href="#DejaVuSans-2e"/>
       <use x="95.410156" xlink:href="#DejaVuSans-30"/>
      </g>
     </g>
    </g>
    <g id="xtick_8">
     <g id="line2d_8">
      <g>
       <use style="stroke:#000000;stroke-width:0.8;" x="351.86188" xlink:href="#mccf08dcdcc" y="244.916423"/>
      </g>
     </g>
     <g id="text_8">
      <!-- 7.5 -->
      <g transform="translate(343.910318 259.51486)scale(0.1 -0.1)">
       <use xlink:href="#DejaVuSans-37"/>
       <use x="63.623047" xlink:href="#DejaVuSans-2e"/>
       <use x="95.410156" xlink:href="#DejaVuSans-35"/>
      </g>
     </g>
    </g>
    <g id="xtick_9">
     <g id="line2d_9">
      <g>
       <use style="stroke:#000000;stroke-width:0.8;" x="398.43781" xlink:href="#mccf08dcdcc" y="244.916423"/>
      </g>
     </g>
     <g id="text_9">
      <!-- 10.0 -->
      <g transform="translate(387.304997 259.51486)scale(0.1 -0.1)">
       <use xlink:href="#DejaVuSans-31"/>
       <use x="63.623047" xlink:href="#DejaVuSans-30"/>
       <use x="127.246094" xlink:href="#DejaVuSans-2e"/>
       <use x="159.033203" xlink:href="#DejaVuSans-30"/>
      </g>
     </g>
    </g>
    <g id="text_10">
     <!-- x -->
     <g transform="translate(414.108807 273.192985)scale(0.1 -0.1)">
      <defs>
       <path d="M 3513 3500 
L 2247 1797 
L 3578 0 
L 2900 0 
L 1881 1375 
L 863 0 
L 184 0 
L 1544 1831 
L 300 3500 
L 978 3500 
L 1906 2253 
L 2834 3500 
L 3513 3500 
z
" id="DejaVuSans-78" transform="scale(0.015625)"/>
      </defs>
      <use xlink:href="#DejaVuSans-78"/>
     </g>
    </g>
   </g>
   <g id="matplotlib.axis_2">
    <g id="ytick_1">
     <g id="line2d_10">
      <defs>
       <path d="M 0 0 
L -3.5 0 
" id="mf12e0bde47" style="stroke:#000000;stroke-width:0.8;"/>
      </defs>
      <g>
       <use style="stroke:#000000;stroke-width:0.8;" x="212.134091" xlink:href="#mf12e0bde47" y="244.916423"/>
      </g>
     </g>
     <g id="text_11">
      <!-- 0 -->
      <g transform="translate(198.771591 248.715641)scale(0.1 -0.1)">
       <use xlink:href="#DejaVuSans-30"/>
      </g>
     </g>
    </g>
    <g id="ytick_2">
     <g id="line2d_11">
      <g>
       <use style="stroke:#000000;stroke-width:0.8;" x="212.134091" xlink:href="#mf12e0bde47" y="201.486029"/>
      </g>
     </g>
     <g id="text_12">
      <!-- 20 -->
      <g transform="translate(192.409091 205.285247)scale(0.1 -0.1)">
       <use xlink:href="#DejaVuSans-32"/>
       <use x="63.623047" xlink:href="#DejaVuSans-30"/>
      </g>
     </g>
    </g>
    <g id="ytick_3">
     <g id="line2d_12">
      <g>
       <use style="stroke:#000000;stroke-width:0.8;" x="212.134091" xlink:href="#mf12e0bde47" y="158.055634"/>
      </g>
     </g>
     <g id="text_13">
      <!-- 40 -->
      <g transform="translate(192.409091 161.854853)scale(0.1 -0.1)">
       <defs>
        <path d="M 2419 4116 
L 825 1625 
L 2419 1625 
L 2419 4116 
z
M 2253 4666 
L 3047 4666 
L 3047 1625 
L 3713 1625 
L 3713 1100 
L 3047 1100 
L 3047 0 
L 2419 0 
L 2419 1100 
L 313 1100 
L 313 1709 
L 2253 4666 
z
" id="DejaVuSans-34" transform="scale(0.015625)"/>
       </defs>
       <use xlink:href="#DejaVuSans-34"/>
       <use x="63.623047" xlink:href="#DejaVuSans-30"/>
      </g>
     </g>
    </g>
    <g id="ytick_4">
     <g id="line2d_13">
      <g>
       <use style="stroke:#000000;stroke-width:0.8;" x="212.134091" xlink:href="#mf12e0bde47" y="114.62524"/>
      </g>
     </g>
     <g id="text_14">
      <!-- 60 -->
      <g transform="translate(192.409091 118.424459)scale(0.1 -0.1)">
       <defs>
        <path d="M 2113 2584 
Q 1688 2584 1439 2293 
Q 1191 2003 1191 1497 
Q 1191 994 1439 701 
Q 1688 409 2113 409 
Q 2538 409 2786 701 
Q 3034 994 3034 1497 
Q 3034 2003 2786 2293 
Q 2538 2584 2113 2584 
z
M 3366 4563 
L 3366 3988 
Q 3128 4100 2886 4159 
Q 2644 4219 2406 4219 
Q 1781 4219 1451 3797 
Q 1122 3375 1075 2522 
Q 1259 2794 1537 2939 
Q 1816 3084 2150 3084 
Q 2853 3084 3261 2657 
Q 3669 2231 3669 1497 
Q 3669 778 3244 343 
Q 2819 -91 2113 -91 
Q 1303 -91 875 529 
Q 447 1150 447 2328 
Q 447 3434 972 4092 
Q 1497 4750 2381 4750 
Q 2619 4750 2861 4703 
Q 3103 4656 3366 4563 
z
" id="DejaVuSans-36" transform="scale(0.015625)"/>
       </defs>
       <use xlink:href="#DejaVuSans-36"/>
       <use x="63.623047" xlink:href="#DejaVuSans-30"/>
      </g>
     </g>
    </g>
    <g id="ytick_5">
     <g id="line2d_14">
      <g>
       <use style="stroke:#000000;stroke-width:0.8;" x="212.134091" xlink:href="#mf12e0bde47" y="71.194846"/>
      </g>
     </g>
     <g id="text_15">
      <!-- 80 -->
      <g transform="translate(192.409091 74.994065)scale(0.1 -0.1)">
       <defs>
        <path d="M 2034 2216 
Q 1584 2216 1326 1975 
Q 1069 1734 1069 1313 
Q 1069 891 1326 650 
Q 1584 409 2034 409 
Q 2484 409 2743 651 
Q 3003 894 3003 1313 
Q 3003 1734 2745 1975 
Q 2488 2216 2034 2216 
z
M 1403 2484 
Q 997 2584 770 2862 
Q 544 3141 544 3541 
Q 544 4100 942 4425 
Q 1341 4750 2034 4750 
Q 2731 4750 3128 4425 
Q 3525 4100 3525 3541 
Q 3525 3141 3298 2862 
Q 3072 2584 2669 2484 
Q 3125 2378 3379 2068 
Q 3634 1759 3634 1313 
Q 3634 634 3220 271 
Q 2806 -91 2034 -91 
Q 1263 -91 848 271 
Q 434 634 434 1313 
Q 434 1759 690 2068 
Q 947 2378 1403 2484 
z
M 1172 3481 
Q 1172 3119 1398 2916 
Q 1625 2713 2034 2713 
Q 2441 2713 2670 2916 
Q 2900 3119 2900 3481 
Q 2900 3844 2670 4047 
Q 2441 4250 2034 4250 
Q 1625 4250 1398 4047 
Q 1172 3844 1172 3481 
z
" id="DejaVuSans-38" transform="scale(0.015625)"/>
       </defs>
       <use xlink:href="#DejaVuSans-38"/>
       <use x="63.623047" xlink:href="#DejaVuSans-30"/>
      </g>
     </g>
    </g>
    <g id="ytick_6">
     <g id="line2d_15">
      <g>
       <use style="stroke:#000000;stroke-width:0.8;" x="212.134091" xlink:href="#mf12e0bde47" y="27.764452"/>
      </g>
     </g>
     <g id="text_16">
      <!-- 100 -->
      <g transform="translate(186.046591 31.563671)scale(0.1 -0.1)">
       <use xlink:href="#DejaVuSans-31"/>
       <use x="63.623047" xlink:href="#DejaVuSans-30"/>
       <use x="127.246094" xlink:href="#DejaVuSans-30"/>
      </g>
     </g>
    </g>
    <g id="text_17">
     <!-- f(x) -->
     <g transform="translate(179.966903 24.442187)rotate(-90)scale(0.1 -0.1)">
      <defs>
       <path d="M 2375 4863 
L 2375 4384 
L 1825 4384 
Q 1516 4384 1395 4259 
Q 1275 4134 1275 3809 
L 1275 3500 
L 2222 3500 
L 2222 3053 
L 1275 3053 
L 1275 0 
L 697 0 
L 697 3053 
L 147 3053 
L 147 3500 
L 697 3500 
L 697 3744 
Q 697 4328 969 4595 
Q 1241 4863 1831 4863 
L 2375 4863 
z
" id="DejaVuSans-66" transform="scale(0.015625)"/>
       <path d="M 1984 4856 
Q 1566 4138 1362 3434 
Q 1159 2731 1159 2009 
Q 1159 1288 1364 580 
Q 1569 -128 1984 -844 
L 1484 -844 
Q 1016 -109 783 600 
Q 550 1309 550 2009 
Q 550 2706 781 3412 
Q 1013 4119 1484 4856 
L 1984 4856 
z
" id="DejaVuSans-28" transform="scale(0.015625)"/>
       <path d="M 513 4856 
L 1013 4856 
Q 1481 4119 1714 3412 
Q 1947 2706 1947 2009 
Q 1947 1309 1714 600 
Q 1481 -109 1013 -844 
L 513 -844 
Q 928 -128 1133 580 
Q 1338 1288 1338 2009 
Q 1338 2731 1133 3434 
Q 928 4138 513 4856 
z
" id="DejaVuSans-29" transform="scale(0.015625)"/>
      </defs>
      <use xlink:href="#DejaVuSans-66"/>
      <use x="35.205078" xlink:href="#DejaVuSans-28"/>
      <use x="74.21875" xlink:href="#DejaVuSans-78"/>
      <use x="133.398438" xlink:href="#DejaVuSans-29"/>
     </g>
    </g>
   </g>
   <g id="LineCollection_1">
    <path clip-path="url(#pb6c2ed6b07)" d="M 25.830372 27.764452 
L 31.667587 41.158766 
" style="fill:none;stroke:#1f77b4;stroke-width:1.5;"/>
    <path clip-path="url(#pb6c2ed6b07)" d="M 31.667587 41.158766 
L 38.50756 56.311553 
" style="fill:none;stroke:#1f77b4;stroke-width:1.5;"/>
    <path clip-path="url(#pb6c2ed6b07)" d="M 38.50756 56.311553 
L 43.46416 66.926235 
" style="fill:none;stroke:#1f77b4;stroke-width:1.5;"/>
    <path clip-path="url(#pb6c2ed6b07)" d="M 43.46416 66.926235 
L 49.257751 78.943696 
" style="fill:none;stroke:#1f77b4;stroke-width:1.5;"/>
    <path clip-path="url(#pb6c2ed6b07)" d="M 49.257751 78.943696 
L 56.107812 92.610698 
" style="fill:none;stroke:#1f77b4;stroke-width:1.5;"/>
    <path clip-path="url(#pb6c2ed6b07)" d="M 56.107812 92.610698 
L 63.054546 105.870953 
" style="fill:none;stroke:#1f77b4;stroke-width:1.5;"/>
    <path clip-path="url(#pb6c2ed6b07)" d="M 63.054546 105.870953 
L 69.673752 117.944215 
" style="fill:none;stroke:#1f77b4;stroke-width:1.5;"/>
    <path clip-path="url(#pb6c2ed6b07)" d="M 69.673752 117.944215 
L 75.881484 128.768788 
" style="fill:none;stroke:#1f77b4;stroke-width:1.5;"/>
    <path clip-path="url(#pb6c2ed6b07)" d="M 75.881484 128.768788 
L 82.205175 139.299781 
" style="fill:none;stroke:#1f77b4;stroke-width:1.5;"/>
    <path clip-path="url(#pb6c2ed6b07)" d="M 82.205175 139.299781 
L 87.950551 148.433868 
" style="fill:none;stroke:#1f77b4;stroke-width:1.5;"/>
    <path clip-path="url(#pb6c2ed6b07)" d="M 87.950551 148.433868 
L 93.680601 157.132204 
" style="fill:none;stroke:#1f77b4;stroke-width:1.5;"/>
    <path clip-path="url(#pb6c2ed6b07)" d="M 93.680601 157.132204 
L 99.688908 165.811696 
" style="fill:none;stroke:#1f77b4;stroke-width:1.5;"/>
    <path clip-path="url(#pb6c2ed6b07)" d="M 99.688908 165.811696 
L 105.331216 173.551202 
" style="fill:none;stroke:#1f77b4;stroke-width:1.5;"/>
    <path clip-path="url(#pb6c2ed6b07)" d="M 105.331216 173.551202 
L 110.148514 179.84381 
" style="fill:none;stroke:#1f77b4;stroke-width:1.5;"/>
    <path clip-path="url(#pb6c2ed6b07)" d="M 110.148514 179.84381 
L 115.596675 186.610582 
" style="fill:none;stroke:#1f77b4;stroke-width:1.5;"/>
    <path clip-path="url(#pb6c2ed6b07)" d="M 115.596675 186.610582 
L 120.973977 192.92515 
" style="fill:none;stroke:#1f77b4;stroke-width:1.5;"/>
    <path clip-path="url(#pb6c2ed6b07)" d="M 120.973977 192.92515 
L 127.821403 200.442381 
" style="fill:none;stroke:#1f77b4;stroke-width:1.5;"/>
    <path clip-path="url(#pb6c2ed6b07)" d="M 127.821403 200.442381 
L 134.175076 206.892807 
" style="fill:none;stroke:#1f77b4;stroke-width:1.5;"/>
    <path clip-path="url(#pb6c2ed6b07)" d="M 134.175076 206.892807 
L 139.237851 211.671067 
" style="fill:none;stroke:#1f77b4;stroke-width:1.5;"/>
    <path clip-path="url(#pb6c2ed6b07)" d="M 139.237851 211.671067 
L 145.199102 216.886163 
" style="fill:none;stroke:#1f77b4;stroke-width:1.5;"/>
    <path clip-path="url(#pb6c2ed6b07)" d="M 145.199102 216.886163 
L 150.431002 221.096819 
" style="fill:none;stroke:#1f77b4;stroke-width:1.5;"/>
    <path clip-path="url(#pb6c2ed6b07)" d="M 150.431002 221.096819 
L 156.793711 225.756004 
" style="fill:none;stroke:#1f77b4;stroke-width:1.5;"/>
    <path clip-path="url(#pb6c2ed6b07)" d="M 156.793711 225.756004 
L 163.972918 230.404838 
" style="fill:none;stroke:#1f77b4;stroke-width:1.5;"/>
    <path clip-path="url(#pb6c2ed6b07)" d="M 163.972918 230.404838 
L 170.63091 234.13978 
" style="fill:none;stroke:#1f77b4;stroke-width:1.5;"/>
    <path clip-path="url(#pb6c2ed6b07)" d="M 170.63091 234.13978 
L 176.046758 236.768811 
" style="fill:none;stroke:#1f77b4;stroke-width:1.5;"/>
    <path clip-path="url(#pb6c2ed6b07)" d="M 176.046758 236.768811 
L 181.895149 239.19566 
" style="fill:none;stroke:#1f77b4;stroke-width:1.5;"/>
    <path clip-path="url(#pb6c2ed6b07)" d="M 181.895149 239.19566 
L 187.090106 240.992435 
" style="fill:none;stroke:#1f77b4;stroke-width:1.5;"/>
    <path clip-path="url(#pb6c2ed6b07)" d="M 187.090106 240.992435 
L 192.056238 242.394363 
" style="fill:none;stroke:#1f77b4;stroke-width:1.5;"/>
    <path clip-path="url(#pb6c2ed6b07)" d="M 192.056238 242.394363 
L 194.412914 242.951679 
" style="fill:none;stroke:#1f77b4;stroke-width:1.5;"/>
    <path clip-path="url(#pb6c2ed6b07)" d="M 194.412914 242.951679 
L 196.886693 243.461928 
" style="fill:none;stroke:#1f77b4;stroke-width:1.5;"/>
    <path clip-path="url(#pb6c2ed6b07)" d="M 196.886693 243.461928 
L 199.114929 243.855981 
" style="fill:none;stroke:#1f77b4;stroke-width:1.5;"/>
    <path clip-path="url(#pb6c2ed6b07)" d="M 199.114929 243.855981 
L 200.546127 244.076315 
" style="fill:none;stroke:#1f77b4;stroke-width:1.5;"/>
    <path clip-path="url(#pb6c2ed6b07)" d="M 200.546127 244.076315 
L 201.723215 244.23832 
" style="fill:none;stroke:#1f77b4;stroke-width:1.5;"/>
    <path clip-path="url(#pb6c2ed6b07)" d="M 201.723215 244.23832 
L 203.279059 244.425853 
" style="fill:none;stroke:#1f77b4;stroke-width:1.5;"/>
    <path clip-path="url(#pb6c2ed6b07)" d="M 203.279059 244.425853 
L 204.6087 244.562116 
" style="fill:none;stroke:#1f77b4;stroke-width:1.5;"/>
    <path clip-path="url(#pb6c2ed6b07)" d="M 204.6087 244.562116 
L 205.32093 244.626008 
" style="fill:none;stroke:#1f77b4;stroke-width:1.5;"/>
    <path clip-path="url(#pb6c2ed6b07)" d="M 205.32093 244.626008 
L 206.078911 244.687032 
" style="fill:none;stroke:#1f77b4;stroke-width:1.5;"/>
    <path clip-path="url(#pb6c2ed6b07)" d="M 206.078911 244.687032 
L 206.646545 244.728024 
" style="fill:none;stroke:#1f77b4;stroke-width:1.5;"/>
    <path clip-path="url(#pb6c2ed6b07)" d="M 206.646545 244.728024 
L 207.315996 244.771188 
" style="fill:none;stroke:#1f77b4;stroke-width:1.5;"/>
    <path clip-path="url(#pb6c2ed6b07)" d="M 207.315996 244.771188 
L 208.047151 244.811922 
" style="fill:none;stroke:#1f77b4;stroke-width:1.5;"/>
    <path clip-path="url(#pb6c2ed6b07)" d="M 208.047151 244.811922 
L 208.765777 244.845441 
" style="fill:none;stroke:#1f77b4;stroke-width:1.5;"/>
    <path clip-path="url(#pb6c2ed6b07)" d="M 208.765777 244.845441 
L 209.592153 244.875998 
" style="fill:none;stroke:#1f77b4;stroke-width:1.5;"/>
    <path clip-path="url(#pb6c2ed6b07)" d="M 209.592153 244.875998 
L 210.284334 244.895016 
" style="fill:none;stroke:#1f77b4;stroke-width:1.5;"/>
    <path clip-path="url(#pb6c2ed6b07)" d="M 210.284334 244.895016 
L 210.94113 244.907519 
" style="fill:none;stroke:#1f77b4;stroke-width:1.5;"/>
    <path clip-path="url(#pb6c2ed6b07)" d="M 210.94113 244.907519 
L 211.574285 244.914462 
" style="fill:none;stroke:#1f77b4;stroke-width:1.5;"/>
    <path clip-path="url(#pb6c2ed6b07)" d="M 211.574285 244.914462 
L 212.115676 244.91642 
" style="fill:none;stroke:#1f77b4;stroke-width:1.5;"/>
    <path clip-path="url(#pb6c2ed6b07)" d="M 212.115676 244.91642 
L 212.775308 244.91385 
" style="fill:none;stroke:#1f77b4;stroke-width:1.5;"/>
    <path clip-path="url(#pb6c2ed6b07)" d="M 212.775308 244.91385 
L 213.52467 244.904325 
" style="fill:none;stroke:#1f77b4;stroke-width:1.5;"/>
    <path clip-path="url(#pb6c2ed6b07)" d="M 213.52467 244.904325 
L 214.30475 244.886944 
" style="fill:none;stroke:#1f77b4;stroke-width:1.5;"/>
    <path clip-path="url(#pb6c2ed6b07)" d="M 214.30475 244.886944 
L 214.979477 244.86577 
" style="fill:none;stroke:#1f77b4;stroke-width:1.5;"/>
    <path clip-path="url(#pb6c2ed6b07)" d="M 214.979477 244.86577 
L 215.65125 244.839029 
" style="fill:none;stroke:#1f77b4;stroke-width:1.5;"/>
    <path clip-path="url(#pb6c2ed6b07)" d="M 215.65125 244.839029 
L 216.247964 244.810541 
" style="fill:none;stroke:#1f77b4;stroke-width:1.5;"/>
    <path clip-path="url(#pb6c2ed6b07)" d="M 216.247964 244.810541 
L 216.915029 244.773419 
" style="fill:none;stroke:#1f77b4;stroke-width:1.5;"/>
    <path clip-path="url(#pb6c2ed6b07)" d="M 216.915029 244.773419 
L 217.52487 244.73461 
" style="fill:none;stroke:#1f77b4;stroke-width:1.5;"/>
    <path clip-path="url(#pb6c2ed6b07)" d="M 217.52487 244.73461 
L 218.213981 244.685156 
" style="fill:none;stroke:#1f77b4;stroke-width:1.5;"/>
    <path clip-path="url(#pb6c2ed6b07)" d="M 218.213981 244.685156 
L 218.934622 244.627084 
" style="fill:none;stroke:#1f77b4;stroke-width:1.5;"/>
    <path clip-path="url(#pb6c2ed6b07)" d="M 218.934622 244.627084 
L 219.618569 244.565958 
" style="fill:none;stroke:#1f77b4;stroke-width:1.5;"/>
    <path clip-path="url(#pb6c2ed6b07)" d="M 219.618569 244.565958 
L 221.043923 244.419762 
" style="fill:none;stroke:#1f77b4;stroke-width:1.5;"/>
    <path clip-path="url(#pb6c2ed6b07)" d="M 221.043923 244.419762 
L 222.600135 244.231114 
" style="fill:none;stroke:#1f77b4;stroke-width:1.5;"/>
    <path clip-path="url(#pb6c2ed6b07)" d="M 222.600135 244.231114 
L 224.141114 244.014454 
" style="fill:none;stroke:#1f77b4;stroke-width:1.5;"/>
    <path clip-path="url(#pb6c2ed6b07)" d="M 224.141114 244.014454 
L 226.488065 243.627387 
" style="fill:none;stroke:#1f77b4;stroke-width:1.5;"/>
    <path clip-path="url(#pb6c2ed6b07)" d="M 226.488065 243.627387 
L 229.218801 243.090275 
" style="fill:none;stroke:#1f77b4;stroke-width:1.5;"/>
    <path clip-path="url(#pb6c2ed6b07)" d="M 229.218801 243.090275 
L 231.637742 242.536556 
" style="fill:none;stroke:#1f77b4;stroke-width:1.5;"/>
    <path clip-path="url(#pb6c2ed6b07)" d="M 231.637742 242.536556 
L 233.998603 241.925534 
" style="fill:none;stroke:#1f77b4;stroke-width:1.5;"/>
    <path clip-path="url(#pb6c2ed6b07)" d="M 233.998603 241.925534 
L 239.189384 240.336847 
" style="fill:none;stroke:#1f77b4;stroke-width:1.5;"/>
    <path clip-path="url(#pb6c2ed6b07)" d="M 239.189384 240.336847 
L 245.460925 237.967638 
" style="fill:none;stroke:#1f77b4;stroke-width:1.5;"/>
    <path clip-path="url(#pb6c2ed6b07)" d="M 245.460925 237.967638 
L 251.487186 235.227433 
" style="fill:none;stroke:#1f77b4;stroke-width:1.5;"/>
    <path clip-path="url(#pb6c2ed6b07)" d="M 251.487186 235.227433 
L 258.117095 231.687776 
" style="fill:none;stroke:#1f77b4;stroke-width:1.5;"/>
    <path clip-path="url(#pb6c2ed6b07)" d="M 258.117095 231.687776 
L 263.60372 228.342596 
" style="fill:none;stroke:#1f77b4;stroke-width:1.5;"/>
    <path clip-path="url(#pb6c2ed6b07)" d="M 263.60372 228.342596 
L 268.588556 224.976782 
" style="fill:none;stroke:#1f77b4;stroke-width:1.5;"/>
    <path clip-path="url(#pb6c2ed6b07)" d="M 268.588556 224.976782 
L 273.646852 221.243539 
" style="fill:none;stroke:#1f77b4;stroke-width:1.5;"/>
    <path clip-path="url(#pb6c2ed6b07)" d="M 273.646852 221.243539 
L 277.943368 217.82106 
" style="fill:none;stroke:#1f77b4;stroke-width:1.5;"/>
    <path clip-path="url(#pb6c2ed6b07)" d="M 277.943368 217.82106 
L 283.844831 212.743602 
" style="fill:none;stroke:#1f77b4;stroke-width:1.5;"/>
    <path clip-path="url(#pb6c2ed6b07)" d="M 283.844831 212.743602 
L 289.409998 207.556244 
" style="fill:none;stroke:#1f77b4;stroke-width:1.5;"/>
    <path clip-path="url(#pb6c2ed6b07)" d="M 289.409998 207.556244 
L 295.920918 200.995423 
" style="fill:none;stroke:#1f77b4;stroke-width:1.5;"/>
    <path clip-path="url(#pb6c2ed6b07)" d="M 295.920918 200.995423 
L 301.848222 194.561442 
" style="fill:none;stroke:#1f77b4;stroke-width:1.5;"/>
    <path clip-path="url(#pb6c2ed6b07)" d="M 301.848222 194.561442 
L 306.602855 189.082622 
" style="fill:none;stroke:#1f77b4;stroke-width:1.5;"/>
    <path clip-path="url(#pb6c2ed6b07)" d="M 306.602855 189.082622 
L 312.138886 182.346967 
" style="fill:none;stroke:#1f77b4;stroke-width:1.5;"/>
    <path clip-path="url(#pb6c2ed6b07)" d="M 312.138886 182.346967 
L 316.794811 176.385251 
" style="fill:none;stroke:#1f77b4;stroke-width:1.5;"/>
    <path clip-path="url(#pb6c2ed6b07)" d="M 316.794811 176.385251 
L 322.461644 168.763128 
" style="fill:none;stroke:#1f77b4;stroke-width:1.5;"/>
    <path clip-path="url(#pb6c2ed6b07)" d="M 322.461644 168.763128 
L 328.778607 159.792941 
" style="fill:none;stroke:#1f77b4;stroke-width:1.5;"/>
    <path clip-path="url(#pb6c2ed6b07)" d="M 328.778607 159.792941 
L 335.019712 150.440126 
" style="fill:none;stroke:#1f77b4;stroke-width:1.5;"/>
    <path clip-path="url(#pb6c2ed6b07)" d="M 335.019712 150.440126 
L 341.567441 140.103915 
" style="fill:none;stroke:#1f77b4;stroke-width:1.5;"/>
    <path clip-path="url(#pb6c2ed6b07)" d="M 341.567441 140.103915 
L 347.357602 130.516656 
" style="fill:none;stroke:#1f77b4;stroke-width:1.5;"/>
    <path clip-path="url(#pb6c2ed6b07)" d="M 347.357602 130.516656 
L 353.354125 120.14551 
" style="fill:none;stroke:#1f77b4;stroke-width:1.5;"/>
    <path clip-path="url(#pb6c2ed6b07)" d="M 353.354125 120.14551 
L 360.348736 107.479645 
" style="fill:none;stroke:#1f77b4;stroke-width:1.5;"/>
    <path clip-path="url(#pb6c2ed6b07)" d="M 360.348736 107.479645 
L 365.29675 98.150063 
" style="fill:none;stroke:#1f77b4;stroke-width:1.5;"/>
    <path clip-path="url(#pb6c2ed6b07)" d="M 365.29675 98.150063 
L 371.180997 86.656417 
" style="fill:none;stroke:#1f77b4;stroke-width:1.5;"/>
    <path clip-path="url(#pb6c2ed6b07)" d="M 371.180997 86.656417 
L 377.749896 73.313656 
" style="fill:none;stroke:#1f77b4;stroke-width:1.5;"/>
    <path clip-path="url(#pb6c2ed6b07)" d="M 377.749896 73.313656 
L 383.609978 60.954965 
" style="fill:none;stroke:#1f77b4;stroke-width:1.5;"/>
    <path clip-path="url(#pb6c2ed6b07)" d="M 383.609978 60.954965 
L 391.361427 43.947351 
" style="fill:none;stroke:#1f77b4;stroke-width:1.5;"/>
    <path clip-path="url(#pb6c2ed6b07)" d="M 391.361427 43.947351 
L 398.43781 27.764452 
" style="fill:none;stroke:#1f77b4;stroke-width:1.5;"/>
   </g>
   <g id="LineCollection_2">
    <path clip-path="url(#pb6c2ed6b07)" d="M 25.830372 266.63162 
L 30.497974 266.087573 
" style="fill:none;stroke:#1f77b4;stroke-width:1.5;"/>
    <path clip-path="url(#pb6c2ed6b07)" d="M 30.497974 266.087573 
L 36.157847 265.427869 
" style="fill:none;stroke:#1f77b4;stroke-width:1.5;"/>
    <path clip-path="url(#pb6c2ed6b07)" d="M 36.157847 265.427869 
L 42.138794 264.730742 
" style="fill:none;stroke:#1f77b4;stroke-width:1.5;"/>
    <path clip-path="url(#pb6c2ed6b07)" d="M 42.138794 264.730742 
L 47.96072 264.05215 
" style="fill:none;stroke:#1f77b4;stroke-width:1.5;"/>
    <path clip-path="url(#pb6c2ed6b07)" d="M 47.96072 264.05215 
L 55.159314 263.213096 
" style="fill:none;stroke:#1f77b4;stroke-width:1.5;"/>
    <path clip-path="url(#pb6c2ed6b07)" d="M 55.159314 263.213096 
L 61.560211 262.467019 
" style="fill:none;stroke:#1f77b4;stroke-width:1.5;"/>
    <path clip-path="url(#pb6c2ed6b07)" d="M 61.560211 262.467019 
L 67.296559 261.798402 
" style="fill:none;stroke:#1f77b4;stroke-width:1.5;"/>
    <path clip-path="url(#pb6c2ed6b07)" d="M 67.296559 261.798402 
L 73.859203 261.033473 
" style="fill:none;stroke:#1f77b4;stroke-width:1.5;"/>
    <path clip-path="url(#pb6c2ed6b07)" d="M 73.859203 261.033473 
L 79.94982 260.323563 
" style="fill:none;stroke:#1f77b4;stroke-width:1.5;"/>
    <path clip-path="url(#pb6c2ed6b07)" d="M 79.94982 260.323563 
L 85.018518 259.732765 
" style="fill:none;stroke:#1f77b4;stroke-width:1.5;"/>
    <path clip-path="url(#pb6c2ed6b07)" d="M 85.018518 259.732765 
L 90.33918 259.112599 
" style="fill:none;stroke:#1f77b4;stroke-width:1.5;"/>
    <path clip-path="url(#pb6c2ed6b07)" d="M 90.33918 259.112599 
L 95.292414 258.53526 
" style="fill:none;stroke:#1f77b4;stroke-width:1.5;"/>
    <path clip-path="url(#pb6c2ed6b07)" d="M 95.292414 258.53526 
L 101.119189 257.856102 
" style="fill:none;stroke:#1f77b4;stroke-width:1.5;"/>
    <path clip-path="url(#pb6c2ed6b07)" d="M 101.119189 257.856102 
L 107.029724 257.167182 
" style="fill:none;stroke:#1f77b4;stroke-width:1.5;"/>
    <path clip-path="url(#pb6c2ed6b07)" d="M 107.029724 257.167182 
L 112.065727 256.580195 
" style="fill:none;stroke:#1f77b4;stroke-width:1.5;"/>
    <path clip-path="url(#pb6c2ed6b07)" d="M 112.065727 256.580195 
L 116.870615 256.020147 
" style="fill:none;stroke:#1f77b4;stroke-width:1.5;"/>
    <path clip-path="url(#pb6c2ed6b07)" d="M 116.870615 256.020147 
L 123.652337 255.229683 
" style="fill:none;stroke:#1f77b4;stroke-width:1.5;"/>
    <path clip-path="url(#pb6c2ed6b07)" d="M 123.652337 255.229683 
L 129.460751 254.552665 
" style="fill:none;stroke:#1f77b4;stroke-width:1.5;"/>
    <path clip-path="url(#pb6c2ed6b07)" d="M 129.460751 254.552665 
L 136.823792 253.694444 
" style="fill:none;stroke:#1f77b4;stroke-width:1.5;"/>
    <path clip-path="url(#pb6c2ed6b07)" d="M 136.823792 253.694444 
L 143.532994 252.912432 
" style="fill:none;stroke:#1f77b4;stroke-width:1.5;"/>
    <path clip-path="url(#pb6c2ed6b07)" d="M 143.532994 252.912432 
L 150.238195 252.130887 
" style="fill:none;stroke:#1f77b4;stroke-width:1.5;"/>
    <path clip-path="url(#pb6c2ed6b07)" d="M 150.238195 252.130887 
L 157.770883 251.252892 
" style="fill:none;stroke:#1f77b4;stroke-width:1.5;"/>
    <path clip-path="url(#pb6c2ed6b07)" d="M 157.770883 251.252892 
L 163.797341 250.55046 
" style="fill:none;stroke:#1f77b4;stroke-width:1.5;"/>
    <path clip-path="url(#pb6c2ed6b07)" d="M 163.797341 250.55046 
L 170.121656 249.81331 
" style="fill:none;stroke:#1f77b4;stroke-width:1.5;"/>
    <path clip-path="url(#pb6c2ed6b07)" d="M 170.121656 249.81331 
L 176.526259 249.066802 
" style="fill:none;stroke:#1f77b4;stroke-width:1.5;"/>
    <path clip-path="url(#pb6c2ed6b07)" d="M 176.526259 249.066802 
L 181.967176 248.432619 
" style="fill:none;stroke:#1f77b4;stroke-width:1.5;"/>
    <path clip-path="url(#pb6c2ed6b07)" d="M 181.967176 248.432619 
L 188.280834 247.696712 
" style="fill:none;stroke:#1f77b4;stroke-width:1.5;"/>
    <path clip-path="url(#pb6c2ed6b07)" d="M 188.280834 247.696712 
L 193.991643 247.031071 
" style="fill:none;stroke:#1f77b4;stroke-width:1.5;"/>
    <path clip-path="url(#pb6c2ed6b07)" d="M 193.991643 247.031071 
L 200.040683 246.326007 
" style="fill:none;stroke:#1f77b4;stroke-width:1.5;"/>
    <path clip-path="url(#pb6c2ed6b07)" d="M 200.040683 246.326007 
L 205.520477 245.687293 
" style="fill:none;stroke:#1f77b4;stroke-width:1.5;"/>
    <path clip-path="url(#pb6c2ed6b07)" d="M 205.520477 245.687293 
L 211.851826 244.949323 
" style="fill:none;stroke:#1f77b4;stroke-width:1.5;"/>
    <path clip-path="url(#pb6c2ed6b07)" d="M 211.851826 244.949323 
L 217.916221 244.242469 
" style="fill:none;stroke:#1f77b4;stroke-width:1.5;"/>
    <path clip-path="url(#pb6c2ed6b07)" d="M 217.916221 244.242469 
L 223.870202 243.548484 
" style="fill:none;stroke:#1f77b4;stroke-width:1.5;"/>
    <path clip-path="url(#pb6c2ed6b07)" d="M 223.870202 243.548484 
L 228.987126 242.952066 
" style="fill:none;stroke:#1f77b4;stroke-width:1.5;"/>
    <path clip-path="url(#pb6c2ed6b07)" d="M 228.987126 242.952066 
L 234.050313 242.361911 
" style="fill:none;stroke:#1f77b4;stroke-width:1.5;"/>
    <path clip-path="url(#pb6c2ed6b07)" d="M 234.050313 242.361911 
L 239.350288 241.744156 
" style="fill:none;stroke:#1f77b4;stroke-width:1.5;"/>
    <path clip-path="url(#pb6c2ed6b07)" d="M 239.350288 241.744156 
L 245.357109 241.044013 
" style="fill:none;stroke:#1f77b4;stroke-width:1.5;"/>
    <path clip-path="url(#pb6c2ed6b07)" d="M 245.357109 241.044013 
L 250.700325 240.421218 
" style="fill:none;stroke:#1f77b4;stroke-width:1.5;"/>
    <path clip-path="url(#pb6c2ed6b07)" d="M 250.700325 240.421218 
L 255.531071 239.858156 
" style="fill:none;stroke:#1f77b4;stroke-width:1.5;"/>
    <path clip-path="url(#pb6c2ed6b07)" d="M 255.531071 239.858156 
L 260.090541 239.326713 
" style="fill:none;stroke:#1f77b4;stroke-width:1.5;"/>
    <path clip-path="url(#pb6c2ed6b07)" d="M 260.090541 239.326713 
L 265.899328 238.649652 
" style="fill:none;stroke:#1f77b4;stroke-width:1.5;"/>
    <path clip-path="url(#pb6c2ed6b07)" d="M 265.899328 238.649652 
L 270.814982 238.076693 
" style="fill:none;stroke:#1f77b4;stroke-width:1.5;"/>
    <path clip-path="url(#pb6c2ed6b07)" d="M 270.814982 238.076693 
L 275.670555 237.510737 
" style="fill:none;stroke:#1f77b4;stroke-width:1.5;"/>
    <path clip-path="url(#pb6c2ed6b07)" d="M 275.670555 237.510737 
L 280.324044 236.968335 
" style="fill:none;stroke:#1f77b4;stroke-width:1.5;"/>
    <path clip-path="url(#pb6c2ed6b07)" d="M 280.324044 236.968335 
L 287.430852 236.139979 
" style="fill:none;stroke:#1f77b4;stroke-width:1.5;"/>
    <path clip-path="url(#pb6c2ed6b07)" d="M 287.430852 236.139979 
L 293.340207 235.451197 
" style="fill:none;stroke:#1f77b4;stroke-width:1.5;"/>
    <path clip-path="url(#pb6c2ed6b07)" d="M 293.340207 235.451197 
L 298.61067 234.836882 
" style="fill:none;stroke:#1f77b4;stroke-width:1.5;"/>
    <path clip-path="url(#pb6c2ed6b07)" d="M 298.61067 234.836882 
L 304.32566 234.170754 
" style="fill:none;stroke:#1f77b4;stroke-width:1.5;"/>
    <path clip-path="url(#pb6c2ed6b07)" d="M 304.32566 234.170754 
L 309.722483 233.54171 
" style="fill:none;stroke:#1f77b4;stroke-width:1.5;"/>
    <path clip-path="url(#pb6c2ed6b07)" d="M 309.722483 233.54171 
L 315.104475 232.914396 
" style="fill:none;stroke:#1f77b4;stroke-width:1.5;"/>
    <path clip-path="url(#pb6c2ed6b07)" d="M 315.104475 232.914396 
L 321.310491 232.191035 
" style="fill:none;stroke:#1f77b4;stroke-width:1.5;"/>
    <path clip-path="url(#pb6c2ed6b07)" d="M 321.310491 232.191035 
L 327.38434 231.483079 
" style="fill:none;stroke:#1f77b4;stroke-width:1.5;"/>
    <path clip-path="url(#pb6c2ed6b07)" d="M 327.38434 231.483079 
L 333.631859 230.75488 
" style="fill:none;stroke:#1f77b4;stroke-width:1.5;"/>
    <path clip-path="url(#pb6c2ed6b07)" d="M 333.631859 230.75488 
L 339.630645 230.055674 
" style="fill:none;stroke:#1f77b4;stroke-width:1.5;"/>
    <path clip-path="url(#pb6c2ed6b07)" d="M 339.630645 230.055674 
L 345.315371 229.393073 
" style="fill:none;stroke:#1f77b4;stroke-width:1.5;"/>
    <path clip-path="url(#pb6c2ed6b07)" d="M 345.315371 229.393073 
L 350.524991 228.78585 
" style="fill:none;stroke:#1f77b4;stroke-width:1.5;"/>
    <path clip-path="url(#pb6c2ed6b07)" d="M 350.524991 228.78585 
L 355.942662 228.154377 
" style="fill:none;stroke:#1f77b4;stroke-width:1.5;"/>
    <path clip-path="url(#pb6c2ed6b07)" d="M 355.942662 228.154377 
L 362.474032 227.393093 
" style="fill:none;stroke:#1f77b4;stroke-width:1.5;"/>
    <path clip-path="url(#pb6c2ed6b07)" d="M 362.474032 227.393093 
L 369.663311 226.555125 
" style="fill:none;stroke:#1f77b4;stroke-width:1.5;"/>
    <path clip-path="url(#pb6c2ed6b07)" d="M 369.663311 226.555125 
L 375.586825 225.864692 
" style="fill:none;stroke:#1f77b4;stroke-width:1.5;"/>
    <path clip-path="url(#pb6c2ed6b07)" d="M 375.586825 225.864692 
L 380.64023 225.275677 
" style="fill:none;stroke:#1f77b4;stroke-width:1.5;"/>
    <path clip-path="url(#pb6c2ed6b07)" d="M 380.64023 225.275677 
L 386.317334 224.613965 
" style="fill:none;stroke:#1f77b4;stroke-width:1.5;"/>
    <path clip-path="url(#pb6c2ed6b07)" d="M 386.317334 224.613965 
L 392.341851 223.911759 
" style="fill:none;stroke:#1f77b4;stroke-width:1.5;"/>
    <path clip-path="url(#pb6c2ed6b07)" d="M 392.341851 223.911759 
L 398.43781 223.201226 
" style="fill:none;stroke:#1f77b4;stroke-width:1.5;"/>
   </g>
   <g id="patch_3">
    <path d="M 212.134091 278.574978 
L 212.134091 15.821094 
" style="fill:none;stroke:#000000;stroke-linecap:square;stroke-linejoin:miter;stroke-width:0.8;"/>
   </g>
   <g id="patch_4">
    <path d="M 417.068182 278.574978 
L 417.068182 15.821094 
" style="fill:none;"/>
   </g>
   <g id="patch_5">
    <path d="M 7.2 244.916423 
L 417.068182 244.916423 
" style="fill:none;stroke:#000000;stroke-linecap:square;stroke-linejoin:miter;stroke-width:0.8;"/>
   </g>
   <g id="patch_6">
    <path d="M 7.2 15.821094 
L 417.068182 15.821094 
" style="fill:none;"/>
   </g>
  </g>
 </g>
 <defs>
  <clipPath id="pb6c2ed6b07">
   <rect height="262.753884" width="409.868182" x="7.2" y="15.821094"/>
  </clipPath>
 </defs>
</svg>
