<?xml version="1.0" encoding="utf-8" standalone="no"?>
<!DOCTYPE svg PUBLIC "-//W3C//DTD SVG 1.1//EN"
  "http://www.w3.org/Graphics/SVG/1.1/DTD/svg11.dtd">
<svg height="256.01875pt" version="1.1" viewBox="0 0 877.4875 256.01875" width="877.4875pt" xmlns="http://www.w3.org/2000/svg" xmlns:xlink="http://www.w3.org/1999/xlink">
 <metadata>
  <rdf:RDF xmlns:cc="http://creativecommons.org/ns#" xmlns:dc="http://purl.org/dc/elements/1.1/" xmlns:rdf="http://www.w3.org/1999/02/22-rdf-syntax-ns#">
   <cc:Work>
    <dc:type rdf:resource="http://purl.org/dc/dcmitype/StillImage"/>
    <dc:date>2021-08-27T10:55:48.958308</dc:date>
    <dc:format>image/svg+xml</dc:format>
    <dc:creator>
     <cc:Agent>
      <dc:title>Matplotlib v3.4.2, https://matplotlib.org/</dc:title>
     </cc:Agent>
    </dc:creator>
   </cc:Work>
  </rdf:RDF>
 </metadata>
 <defs>
  <style type="text/css">*{stroke-linecap:butt;stroke-linejoin:round;}</style>
 </defs>
 <g id="figure_1">
  <g id="patch_1">
   <path d="M 0 256.01875 
L 877.4875 256.01875 
L 877.4875 0 
L 0 0 
z
" style="fill:none;"/>
  </g>
  <g id="axes_1">
   <g id="patch_2">
    <path d="M 33.2875 224.64 
L 870.2875 224.64 
L 870.2875 7.2 
L 33.2875 7.2 
z
" style="fill:#ffffff;"/>
   </g>
   <g id="matplotlib.axis_1">
    <g id="xtick_1">
     <g id="line2d_1">
      <defs>
       <path d="M 0 0 
L 0 3.5 
" id="me83500c45b" style="stroke:#000000;stroke-width:0.8;"/>
      </defs>
      <g>
       <use style="stroke:#000000;stroke-width:0.8;" x="71.332955" xlink:href="#me83500c45b" y="224.64"/>
      </g>
     </g>
     <g id="text_1">
      <!-- 0 -->
      <g transform="translate(73.816392 237.36625)rotate(-90)scale(0.09 -0.09)">
       <defs>
        <path d="M 2034 4250 
Q 1547 4250 1301 3770 
Q 1056 3291 1056 2328 
Q 1056 1369 1301 889 
Q 1547 409 2034 409 
Q 2525 409 2770 889 
Q 3016 1369 3016 2328 
Q 3016 3291 2770 3770 
Q 2525 4250 2034 4250 
z
M 2034 4750 
Q 2819 4750 3233 4129 
Q 3647 3509 3647 2328 
Q 3647 1150 3233 529 
Q 2819 -91 2034 -91 
Q 1250 -91 836 529 
Q 422 1150 422 2328 
Q 422 3509 836 4129 
Q 1250 4750 2034 4750 
z
" id="DejaVuSans-30" transform="scale(0.015625)"/>
       </defs>
       <use xlink:href="#DejaVuSans-30"/>
      </g>
     </g>
    </g>
    <g id="xtick_2">
     <g id="line2d_2">
      <g>
       <use style="stroke:#000000;stroke-width:0.8;" x="208.929535" xlink:href="#me83500c45b" y="224.64"/>
      </g>
     </g>
     <g id="text_2">
      <!-- 100 -->
      <g transform="translate(211.412973 248.81875)rotate(-90)scale(0.09 -0.09)">
       <defs>
        <path d="M 794 531 
L 1825 531 
L 1825 4091 
L 703 3866 
L 703 4441 
L 1819 4666 
L 2450 4666 
L 2450 531 
L 3481 531 
L 3481 0 
L 794 0 
L 794 531 
z
" id="DejaVuSans-31" transform="scale(0.015625)"/>
       </defs>
       <use xlink:href="#DejaVuSans-31"/>
       <use x="63.623047" xlink:href="#DejaVuSans-30"/>
       <use x="127.246094" xlink:href="#DejaVuSans-30"/>
      </g>
     </g>
    </g>
    <g id="xtick_3">
     <g id="line2d_3">
      <g>
       <use style="stroke:#000000;stroke-width:0.8;" x="346.526116" xlink:href="#me83500c45b" y="224.64"/>
      </g>
     </g>
     <g id="text_3">
      <!-- 200 -->
      <g transform="translate(349.009553 248.81875)rotate(-90)scale(0.09 -0.09)">
       <defs>
        <path d="M 1228 531 
L 3431 531 
L 3431 0 
L 469 0 
L 469 531 
Q 828 903 1448 1529 
Q 2069 2156 2228 2338 
Q 2531 2678 2651 2914 
Q 2772 3150 2772 3378 
Q 2772 3750 2511 3984 
Q 2250 4219 1831 4219 
Q 1534 4219 1204 4116 
Q 875 4013 500 3803 
L 500 4441 
Q 881 4594 1212 4672 
Q 1544 4750 1819 4750 
Q 2544 4750 2975 4387 
Q 3406 4025 3406 3419 
Q 3406 3131 3298 2873 
Q 3191 2616 2906 2266 
Q 2828 2175 2409 1742 
Q 1991 1309 1228 531 
z
" id="DejaVuSans-32" transform="scale(0.015625)"/>
       </defs>
       <use xlink:href="#DejaVuSans-32"/>
       <use x="63.623047" xlink:href="#DejaVuSans-30"/>
       <use x="127.246094" xlink:href="#DejaVuSans-30"/>
      </g>
     </g>
    </g>
    <g id="xtick_4">
     <g id="line2d_4">
      <g>
       <use style="stroke:#000000;stroke-width:0.8;" x="484.122696" xlink:href="#me83500c45b" y="224.64"/>
      </g>
     </g>
     <g id="text_4">
      <!-- 300 -->
      <g transform="translate(486.606134 248.81875)rotate(-90)scale(0.09 -0.09)">
       <defs>
        <path d="M 2597 2516 
Q 3050 2419 3304 2112 
Q 3559 1806 3559 1356 
Q 3559 666 3084 287 
Q 2609 -91 1734 -91 
Q 1441 -91 1130 -33 
Q 819 25 488 141 
L 488 750 
Q 750 597 1062 519 
Q 1375 441 1716 441 
Q 2309 441 2620 675 
Q 2931 909 2931 1356 
Q 2931 1769 2642 2001 
Q 2353 2234 1838 2234 
L 1294 2234 
L 1294 2753 
L 1863 2753 
Q 2328 2753 2575 2939 
Q 2822 3125 2822 3475 
Q 2822 3834 2567 4026 
Q 2313 4219 1838 4219 
Q 1578 4219 1281 4162 
Q 984 4106 628 3988 
L 628 4550 
Q 988 4650 1302 4700 
Q 1616 4750 1894 4750 
Q 2613 4750 3031 4423 
Q 3450 4097 3450 3541 
Q 3450 3153 3228 2886 
Q 3006 2619 2597 2516 
z
" id="DejaVuSans-33" transform="scale(0.015625)"/>
       </defs>
       <use xlink:href="#DejaVuSans-33"/>
       <use x="63.623047" xlink:href="#DejaVuSans-30"/>
       <use x="127.246094" xlink:href="#DejaVuSans-30"/>
      </g>
     </g>
    </g>
    <g id="xtick_5">
     <g id="line2d_5">
      <g>
       <use style="stroke:#000000;stroke-width:0.8;" x="621.719277" xlink:href="#me83500c45b" y="224.64"/>
      </g>
     </g>
     <g id="text_5">
      <!-- 400 -->
      <g transform="translate(624.202715 248.81875)rotate(-90)scale(0.09 -0.09)">
       <defs>
        <path d="M 2419 4116 
L 825 1625 
L 2419 1625 
L 2419 4116 
z
M 2253 4666 
L 3047 4666 
L 3047 1625 
L 3713 1625 
L 3713 1100 
L 3047 1100 
L 3047 0 
L 2419 0 
L 2419 1100 
L 313 1100 
L 313 1709 
L 2253 4666 
z
" id="DejaVuSans-34" transform="scale(0.015625)"/>
       </defs>
       <use xlink:href="#DejaVuSans-34"/>
       <use x="63.623047" xlink:href="#DejaVuSans-30"/>
       <use x="127.246094" xlink:href="#DejaVuSans-30"/>
      </g>
     </g>
    </g>
    <g id="xtick_6">
     <g id="line2d_6">
      <g>
       <use style="stroke:#000000;stroke-width:0.8;" x="759.315858" xlink:href="#me83500c45b" y="224.64"/>
      </g>
     </g>
     <g id="text_6">
      <!-- 500 -->
      <g transform="translate(761.799295 248.81875)rotate(-90)scale(0.09 -0.09)">
       <defs>
        <path d="M 691 4666 
L 3169 4666 
L 3169 4134 
L 1269 4134 
L 1269 2991 
Q 1406 3038 1543 3061 
Q 1681 3084 1819 3084 
Q 2600 3084 3056 2656 
Q 3513 2228 3513 1497 
Q 3513 744 3044 326 
Q 2575 -91 1722 -91 
Q 1428 -91 1123 -41 
Q 819 9 494 109 
L 494 744 
Q 775 591 1075 516 
Q 1375 441 1709 441 
Q 2250 441 2565 725 
Q 2881 1009 2881 1497 
Q 2881 1984 2565 2268 
Q 2250 2553 1709 2553 
Q 1456 2553 1204 2497 
Q 953 2441 691 2322 
L 691 4666 
z
" id="DejaVuSans-35" transform="scale(0.015625)"/>
       </defs>
       <use xlink:href="#DejaVuSans-35"/>
       <use x="63.623047" xlink:href="#DejaVuSans-30"/>
       <use x="127.246094" xlink:href="#DejaVuSans-30"/>
      </g>
     </g>
    </g>
   </g>
   <g id="matplotlib.axis_2">
    <g id="ytick_1">
     <g id="line2d_7">
      <defs>
       <path d="M 0 0 
L -3.5 0 
" id="m83b1a0f7c5" style="stroke:#000000;stroke-width:0.8;"/>
      </defs>
      <g>
       <use style="stroke:#000000;stroke-width:0.8;" x="33.2875" xlink:href="#m83b1a0f7c5" y="214.756364"/>
      </g>
     </g>
     <g id="text_7">
      <!-- 0 -->
      <g transform="translate(19.925 218.555582)scale(0.1 -0.1)">
       <use xlink:href="#DejaVuSans-30"/>
      </g>
     </g>
    </g>
    <g id="ytick_2">
     <g id="line2d_8">
      <g>
       <use style="stroke:#000000;stroke-width:0.8;" x="33.2875" xlink:href="#m83b1a0f7c5" y="186.875866"/>
      </g>
     </g>
     <g id="text_8">
      <!-- 100 -->
      <g transform="translate(7.2 190.675085)scale(0.1 -0.1)">
       <use xlink:href="#DejaVuSans-31"/>
       <use x="63.623047" xlink:href="#DejaVuSans-30"/>
       <use x="127.246094" xlink:href="#DejaVuSans-30"/>
      </g>
     </g>
    </g>
    <g id="ytick_3">
     <g id="line2d_9">
      <g>
       <use style="stroke:#000000;stroke-width:0.8;" x="33.2875" xlink:href="#m83b1a0f7c5" y="158.995369"/>
      </g>
     </g>
     <g id="text_9">
      <!-- 200 -->
      <g transform="translate(7.2 162.794587)scale(0.1 -0.1)">
       <use xlink:href="#DejaVuSans-32"/>
       <use x="63.623047" xlink:href="#DejaVuSans-30"/>
       <use x="127.246094" xlink:href="#DejaVuSans-30"/>
      </g>
     </g>
    </g>
    <g id="ytick_4">
     <g id="line2d_10">
      <g>
       <use style="stroke:#000000;stroke-width:0.8;" x="33.2875" xlink:href="#m83b1a0f7c5" y="131.114871"/>
      </g>
     </g>
     <g id="text_10">
      <!-- 300 -->
      <g transform="translate(7.2 134.91409)scale(0.1 -0.1)">
       <use xlink:href="#DejaVuSans-33"/>
       <use x="63.623047" xlink:href="#DejaVuSans-30"/>
       <use x="127.246094" xlink:href="#DejaVuSans-30"/>
      </g>
     </g>
    </g>
    <g id="ytick_5">
     <g id="line2d_11">
      <g>
       <use style="stroke:#000000;stroke-width:0.8;" x="33.2875" xlink:href="#m83b1a0f7c5" y="103.234374"/>
      </g>
     </g>
     <g id="text_11">
      <!-- 400 -->
      <g transform="translate(7.2 107.033592)scale(0.1 -0.1)">
       <use xlink:href="#DejaVuSans-34"/>
       <use x="63.623047" xlink:href="#DejaVuSans-30"/>
       <use x="127.246094" xlink:href="#DejaVuSans-30"/>
      </g>
     </g>
    </g>
    <g id="ytick_6">
     <g id="line2d_12">
      <g>
       <use style="stroke:#000000;stroke-width:0.8;" x="33.2875" xlink:href="#m83b1a0f7c5" y="75.353876"/>
      </g>
     </g>
     <g id="text_12">
      <!-- 500 -->
      <g transform="translate(7.2 79.153095)scale(0.1 -0.1)">
       <use xlink:href="#DejaVuSans-35"/>
       <use x="63.623047" xlink:href="#DejaVuSans-30"/>
       <use x="127.246094" xlink:href="#DejaVuSans-30"/>
      </g>
     </g>
    </g>
    <g id="ytick_7">
     <g id="line2d_13">
      <g>
       <use style="stroke:#000000;stroke-width:0.8;" x="33.2875" xlink:href="#m83b1a0f7c5" y="47.473379"/>
      </g>
     </g>
     <g id="text_13">
      <!-- 600 -->
      <g transform="translate(7.2 51.272597)scale(0.1 -0.1)">
       <defs>
        <path d="M 2113 2584 
Q 1688 2584 1439 2293 
Q 1191 2003 1191 1497 
Q 1191 994 1439 701 
Q 1688 409 2113 409 
Q 2538 409 2786 701 
Q 3034 994 3034 1497 
Q 3034 2003 2786 2293 
Q 2538 2584 2113 2584 
z
M 3366 4563 
L 3366 3988 
Q 3128 4100 2886 4159 
Q 2644 4219 2406 4219 
Q 1781 4219 1451 3797 
Q 1122 3375 1075 2522 
Q 1259 2794 1537 2939 
Q 1816 3084 2150 3084 
Q 2853 3084 3261 2657 
Q 3669 2231 3669 1497 
Q 3669 778 3244 343 
Q 2819 -91 2113 -91 
Q 1303 -91 875 529 
Q 447 1150 447 2328 
Q 447 3434 972 4092 
Q 1497 4750 2381 4750 
Q 2619 4750 2861 4703 
Q 3103 4656 3366 4563 
z
" id="DejaVuSans-36" transform="scale(0.015625)"/>
       </defs>
       <use xlink:href="#DejaVuSans-36"/>
       <use x="63.623047" xlink:href="#DejaVuSans-30"/>
       <use x="127.246094" xlink:href="#DejaVuSans-30"/>
      </g>
     </g>
    </g>
    <g id="ytick_8">
     <g id="line2d_14">
      <g>
       <use style="stroke:#000000;stroke-width:0.8;" x="33.2875" xlink:href="#m83b1a0f7c5" y="19.592881"/>
      </g>
     </g>
     <g id="text_14">
      <!-- 700 -->
      <g transform="translate(7.2 23.3921)scale(0.1 -0.1)">
       <defs>
        <path d="M 525 4666 
L 3525 4666 
L 3525 4397 
L 1831 0 
L 1172 0 
L 2766 4134 
L 525 4134 
L 525 4666 
z
" id="DejaVuSans-37" transform="scale(0.015625)"/>
       </defs>
       <use xlink:href="#DejaVuSans-37"/>
       <use x="63.623047" xlink:href="#DejaVuSans-30"/>
       <use x="127.246094" xlink:href="#DejaVuSans-30"/>
      </g>
     </g>
    </g>
   </g>
   <g id="line2d_15">
    <path clip-path="url(#pc297e7f7be)" d="M 71.332955 213.951903 
L 72.70892 214.756364 
L 74.084886 214.538968 
L 75.460852 214.63528 
L 78.212784 214.370524 
L 80.964715 214.535335 
L 82.340681 214.337867 
L 87.844544 214.221877 
L 89.22051 214.300491 
L 90.596476 214.100179 
L 93.348407 214.090492 
L 94.724373 213.917673 
L 96.100339 212.689797 
L 97.476305 212.879789 
L 102.980168 211.447278 
L 104.356134 211.01008 
L 107.108066 209.588411 
L 108.484031 209.433832 
L 109.859997 208.970385 
L 111.235963 208.781452 
L 112.611929 208.922185 
L 113.987895 209.766957 
L 115.36386 209.570506 
L 118.115792 210.205484 
L 119.491758 209.577842 
L 120.867724 209.129103 
L 122.243689 209.726174 
L 123.619655 209.931058 
L 124.995621 210.455119 
L 126.371587 210.712467 
L 127.747553 209.868319 
L 129.123518 209.948396 
L 130.499484 210.415247 
L 131.87545 210.031183 
L 133.251416 209.143148 
L 134.627382 209.370877 
L 136.003347 209.85068 
L 137.379313 209.905641 
L 138.755279 210.317145 
L 141.507211 210.273025 
L 142.883176 210.119438 
L 145.635108 210.567682 
L 147.011074 211.044708 
L 151.138971 211.36307 
L 152.514937 211.93956 
L 153.890903 211.388715 
L 155.266869 211.215609 
L 156.642835 211.333444 
L 158.0188 211.057362 
L 159.394766 211.139337 
L 160.770732 211.085305 
L 163.522664 212.383597 
L 164.898629 210.876615 
L 166.274595 211.934095 
L 167.650561 211.560073 
L 170.402493 212.215811 
L 171.778458 212.046325 
L 173.154424 212.852695 
L 174.53039 211.854213 
L 175.906356 212.312631 
L 177.282322 211.828114 
L 178.658287 212.160404 
L 180.034253 212.670032 
L 181.410219 212.931218 
L 182.786185 212.790236 
L 184.162151 213.067395 
L 185.538116 212.923244 
L 186.914082 212.917203 
L 188.290048 212.117002 
L 189.666014 213.007146 
L 191.04198 213.450287 
L 193.793911 212.270267 
L 195.169877 212.498219 
L 197.921809 212.391145 
L 199.297775 212.920566 
L 200.67374 212.572752 
L 202.049706 212.652745 
L 203.425672 213.5111 
L 204.801638 212.634133 
L 206.177604 212.7128 
L 207.553569 212.4818 
L 208.929535 213.001579 
L 211.681467 212.513227 
L 213.057433 211.933231 
L 214.433398 212.538297 
L 215.809364 212.331992 
L 217.18533 212.745777 
L 218.561296 212.551854 
L 219.937262 212.050253 
L 222.689193 212.195894 
L 224.065159 212.058478 
L 225.441125 211.787385 
L 229.569022 212.217106 
L 230.944988 210.937989 
L 232.320954 210.719044 
L 233.69692 210.671405 
L 235.072886 210.504058 
L 236.448851 211.671032 
L 237.824817 210.504678 
L 239.200783 210.619356 
L 243.32868 210.43231 
L 244.704646 210.024445 
L 246.080612 210.004011 
L 247.456578 210.896848 
L 251.584475 208.994125 
L 252.960441 209.506469 
L 254.336407 209.744351 
L 257.088338 209.286886 
L 258.464304 209.468547 
L 259.84027 208.965514 
L 261.216236 209.086898 
L 262.592202 207.677757 
L 263.968167 209.355129 
L 265.344133 206.691078 
L 266.720099 209.630744 
L 268.096065 208.020882 
L 270.847996 207.464523 
L 272.223962 208.384623 
L 273.599928 207.623337 
L 274.975894 207.700758 
L 276.35186 208.193661 
L 277.727825 207.932017 
L 279.103791 207.176985 
L 280.479757 206.988952 
L 281.855723 206.646664 
L 283.231689 206.986025 
L 284.607655 206.928456 
L 285.98362 207.090653 
L 287.359586 207.739095 
L 288.735552 206.990719 
L 290.111518 207.175955 
L 291.487484 206.450928 
L 292.863449 207.818995 
L 294.239415 206.751354 
L 295.615381 207.796247 
L 296.991347 207.078003 
L 298.367313 207.411432 
L 299.743278 207.132441 
L 301.119244 207.293138 
L 302.49521 208.2273 
L 303.871176 208.597086 
L 305.247142 209.18301 
L 306.623107 209.952849 
L 307.999073 208.785257 
L 309.375039 207.881555 
L 310.751005 208.145559 
L 312.126971 208.060518 
L 313.502936 208.594408 
L 316.254868 208.939241 
L 317.630834 209.409618 
L 319.0068 208.795404 
L 320.382765 208.733539 
L 323.134697 209.743891 
L 324.510663 210.700458 
L 327.262595 209.621541 
L 330.014526 210.231545 
L 331.390492 210.456254 
L 335.518389 210.695508 
L 336.894355 210.911887 
L 338.270321 210.651678 
L 339.646287 210.965263 
L 341.022253 210.12644 
L 342.398218 210.022707 
L 343.774184 210.435406 
L 345.15015 210.692392 
L 346.526116 209.655083 
L 347.902082 210.505708 
L 349.278047 210.002492 
L 350.654013 210.185378 
L 352.029979 210.043807 
L 353.405945 210.617282 
L 354.781911 210.538708 
L 356.157876 210.087999 
L 357.533842 209.230246 
L 358.909808 209.817302 
L 360.285774 208.518113 
L 361.66174 208.578418 
L 363.037705 209.751992 
L 364.413671 208.937204 
L 365.789637 208.409 
L 367.165603 208.67449 
L 368.541569 208.718486 
L 369.917535 208.492672 
L 371.2935 208.78185 
L 372.669466 207.699614 
L 374.045432 208.815639 
L 375.421398 208.061164 
L 376.797364 208.267715 
L 378.173329 207.726684 
L 379.549295 208.521842 
L 380.925261 207.625122 
L 382.301227 208.379014 
L 383.677193 208.645714 
L 385.053158 207.585125 
L 386.429124 206.833128 
L 387.80509 207.159684 
L 389.181056 206.726952 
L 390.557022 207.111077 
L 391.932987 207.726767 
L 393.308953 208.176239 
L 394.684919 206.272421 
L 396.060885 205.668094 
L 397.436851 206.245477 
L 398.812816 205.58623 
L 400.188782 206.296997 
L 401.564748 205.985083 
L 402.940714 206.277743 
L 404.31668 206.256792 
L 405.692645 203.510607 
L 407.068611 204.225502 
L 408.444577 204.68068 
L 409.820543 204.909195 
L 411.196509 204.047361 
L 412.572475 203.981167 
L 413.94844 205.304105 
L 415.324406 203.947764 
L 416.700372 203.855063 
L 418.076338 201.650175 
L 419.452304 202.427745 
L 420.828269 203.434896 
L 422.204235 202.751294 
L 423.580201 201.238834 
L 424.956167 201.160168 
L 426.332133 201.823465 
L 427.708098 201.836961 
L 429.084064 202.28904 
L 430.46003 201.751246 
L 431.835996 201.872655 
L 433.211962 200.741098 
L 435.963893 201.093117 
L 437.339859 201.015621 
L 438.715825 201.131513 
L 440.091791 201.040012 
L 441.467756 201.24063 
L 442.843722 201.195635 
L 444.219688 200.458331 
L 446.97162 200.676158 
L 448.347585 200.771624 
L 449.723551 200.687627 
L 451.099517 202.063844 
L 452.475483 200.781949 
L 453.851449 201.363477 
L 455.227415 200.621034 
L 456.60338 201.043496 
L 457.979346 200.675928 
L 459.355312 202.90406 
L 460.731278 203.285153 
L 462.107244 203.331923 
L 463.483209 203.835611 
L 464.859175 203.590457 
L 466.235141 204.154042 
L 467.611107 204.295215 
L 468.987073 204.571141 
L 471.739004 205.994715 
L 473.11497 206.232969 
L 474.490936 205.081189 
L 475.866902 205.847791 
L 477.242867 206.196158 
L 478.618833 207.715188 
L 479.994799 207.907555 
L 481.370765 207.032717 
L 482.746731 206.913521 
L 484.122696 207.809211 
L 485.498662 208.110943 
L 486.874628 208.127361 
L 488.250594 209.161911 
L 491.002525 209.116671 
L 492.378491 208.65257 
L 493.754457 208.78671 
L 495.130423 209.876851 
L 496.506389 209.901332 
L 497.882355 210.527682 
L 499.25832 210.44164 
L 500.634286 210.904244 
L 502.010252 210.871615 
L 503.386218 210.534641 
L 504.762184 210.005374 
L 506.138149 210.683586 
L 508.890081 211.522259 
L 510.266047 211.484918 
L 511.642013 211.23594 
L 513.017978 211.622348 
L 514.393944 212.142249 
L 515.76991 211.477348 
L 517.145876 212.045028 
L 518.521842 212.124544 
L 519.897807 212.479532 
L 521.273773 211.851345 
L 522.649739 211.639199 
L 524.025705 211.665964 
L 525.401671 212.182804 
L 526.777636 212.119909 
L 528.153602 211.685558 
L 529.529568 212.00105 
L 530.905534 212.086264 
L 532.2815 211.963687 
L 533.657465 212.073519 
L 535.033431 211.787279 
L 536.409397 212.367527 
L 537.785363 212.552517 
L 539.161329 211.901039 
L 540.537295 211.633652 
L 541.91326 212.244084 
L 543.289226 211.871968 
L 544.665192 212.058364 
L 546.041158 212.504541 
L 547.417124 212.143861 
L 548.793089 212.524192 
L 550.169055 212.251853 
L 551.545021 212.482368 
L 552.920987 212.263348 
L 554.296953 212.647868 
L 555.672918 212.239321 
L 557.048884 212.362711 
L 558.42485 212.963286 
L 559.800816 212.657141 
L 561.176782 211.981146 
L 562.552747 212.85271 
L 563.928713 212.724528 
L 565.304679 212.938484 
L 566.680645 212.430543 
L 568.056611 212.815846 
L 569.432576 212.172743 
L 570.808542 211.995787 
L 572.184508 212.679069 
L 573.560474 212.276833 
L 574.93644 212.368198 
L 576.312405 212.644534 
L 577.688371 212.458487 
L 579.064337 212.005266 
L 580.440303 211.94596 
L 581.816269 212.500057 
L 583.192235 211.848478 
L 584.5682 212.618856 
L 588.696098 211.42882 
L 590.072064 212.106136 
L 591.448029 212.107168 
L 592.823995 212.349804 
L 595.575927 212.219903 
L 596.951893 211.871676 
L 598.327858 211.698199 
L 601.07979 212.879172 
L 602.455756 212.037814 
L 603.831722 213.114172 
L 605.207687 212.485391 
L 606.583653 212.010433 
L 607.959619 211.653253 
L 609.335585 211.762643 
L 610.711551 212.734265 
L 612.087516 211.976638 
L 613.463482 212.635351 
L 614.839448 212.414246 
L 616.215414 212.466999 
L 617.59138 212.251211 
L 618.967345 212.436714 
L 620.343311 211.823729 
L 621.719277 211.725691 
L 623.095243 212.242844 
L 625.847175 212.022657 
L 627.22314 212.285241 
L 628.599106 212.00908 
L 629.975072 211.860568 
L 631.351038 211.959867 
L 632.727004 211.27276 
L 634.102969 211.085962 
L 635.478935 209.963564 
L 636.854901 209.729124 
L 638.230867 209.788892 
L 639.606833 209.348434 
L 640.982798 209.611378 
L 642.358764 210.443638 
L 643.73473 209.313734 
L 645.110696 207.530878 
L 649.238593 206.405656 
L 650.614559 205.921355 
L 651.990525 205.735166 
L 653.366491 205.833061 
L 654.742456 203.444949 
L 656.118422 203.769925 
L 658.870354 204.069179 
L 660.24632 202.2387 
L 661.622285 204.203003 
L 662.998251 204.127994 
L 664.374217 201.919988 
L 665.750183 200.863054 
L 668.502114 202.638859 
L 669.87808 203.912222 
L 671.254046 203.255358 
L 672.630012 205.258472 
L 674.005978 203.588486 
L 675.381944 203.788662 
L 676.757909 205.079308 
L 678.133875 204.696417 
L 679.509841 205.160603 
L 680.885807 205.172418 
L 682.261773 206.464926 
L 683.637738 203.495446 
L 686.38967 206.02726 
L 687.765636 204.24256 
L 689.141602 206.098577 
L 690.517567 208.651191 
L 691.893533 208.527448 
L 693.269499 205.703634 
L 694.645465 206.423689 
L 696.021431 205.698372 
L 697.397396 207.886734 
L 698.773362 207.984162 
L 700.149328 208.778635 
L 701.525294 208.955566 
L 704.277225 207.236564 
L 707.029157 209.846594 
L 708.405123 209.761345 
L 709.781089 209.201593 
L 711.157054 209.317852 
L 712.53302 208.684123 
L 713.908986 208.257526 
L 715.284952 209.61712 
L 716.660918 209.960927 
L 718.036884 209.590742 
L 719.412849 210.022022 
L 720.788815 210.687422 
L 722.164781 210.816188 
L 723.540747 210.819561 
L 724.916713 209.264768 
L 726.292678 210.033619 
L 727.668644 210.230544 
L 729.04461 211.001388 
L 730.420576 211.159955 
L 731.796542 208.970667 
L 733.172507 211.180939 
L 734.548473 210.709457 
L 735.924439 210.871479 
L 737.300405 210.561777 
L 740.052336 211.323558 
L 741.428302 211.320488 
L 742.804268 210.660587 
L 744.180234 211.304301 
L 745.5562 211.402679 
L 746.932165 210.471746 
L 748.308131 211.304749 
L 749.684097 210.88517 
L 751.060063 210.68925 
L 753.811994 210.567221 
L 755.18796 210.680545 
L 756.563926 211.114035 
L 757.939892 211.042874 
L 759.315858 211.32879 
L 760.691824 209.929735 
L 763.443755 210.553562 
L 764.819721 210.011167 
L 766.195687 210.987271 
L 768.947618 210.260596 
L 770.323584 210.052254 
L 771.69955 209.653589 
L 773.075516 210.143111 
L 775.827447 209.192074 
L 777.203413 209.204567 
L 778.579379 209.687198 
L 781.331311 208.902187 
L 782.707276 207.936216 
L 784.083242 208.94425 
L 785.459208 208.403927 
L 786.835174 208.895779 
L 788.21114 207.412403 
L 789.587105 207.437347 
L 790.963071 206.097207 
L 792.339037 205.242293 
L 793.715003 206.655857 
L 796.466934 207.314336 
L 797.8429 206.698545 
L 799.218866 204.9345 
L 800.594832 203.867788 
L 801.970798 204.787556 
L 803.346764 203.978801 
L 806.098695 202.549368 
L 807.474661 204.160094 
L 808.850627 200.483068 
L 810.226593 199.314809 
L 811.602558 201.36302 
L 812.978524 200.735315 
L 814.35449 199.777869 
L 815.730456 200.861417 
L 817.106422 202.141124 
L 818.482387 198.311624 
L 819.858353 197.570552 
L 821.234319 198.658079 
L 822.610285 199.386956 
L 825.362216 199.688431 
L 826.738182 199.729483 
L 828.114148 196.599132 
L 829.490114 198.654938 
L 830.86608 196.129238 
L 832.242045 197.25904 
L 832.242045 197.25904 
" style="fill:none;stroke:#1f77b4;stroke-linecap:square;stroke-width:1.5;"/>
   </g>
   <g id="line2d_16">
    <path clip-path="url(#pc297e7f7be)" d="M 71.332955 214.198754 
L 72.70892 214.756364 
L 74.084886 214.198754 
L 75.460852 214.477559 
L 76.836818 213.919949 
L 78.212784 213.641144 
L 79.588749 213.641144 
L 80.964715 213.919949 
L 82.340681 212.804729 
L 85.092613 212.247119 
L 86.468578 211.689509 
L 87.844544 211.410704 
L 89.22051 211.689509 
L 90.596476 210.574289 
L 91.972442 210.574289 
L 93.348407 210.016679 
L 94.724373 208.901459 
L 96.100339 201.09492 
L 97.476305 202.76775 
L 98.852271 199.700895 
L 100.228236 197.19165 
L 101.604202 193.845991 
L 102.980168 191.057941 
L 104.356134 187.712281 
L 107.108066 178.790522 
L 108.484031 177.117692 
L 109.859997 173.772032 
L 111.235963 173.214422 
L 112.611929 173.214422 
L 113.987895 180.463352 
L 115.36386 178.790522 
L 116.739826 179.348132 
L 118.115792 180.742157 
L 119.491758 174.887252 
L 120.867724 170.983983 
L 122.243689 174.608447 
L 123.619655 176.002472 
L 124.995621 180.463352 
L 126.371587 182.136182 
L 127.747553 175.444862 
L 129.123518 176.281277 
L 130.499484 180.184547 
L 131.87545 177.396497 
L 133.251416 170.705178 
L 134.627382 172.656812 
L 136.003347 176.838887 
L 137.379313 177.675302 
L 138.755279 181.020962 
L 140.131245 182.136182 
L 141.507211 180.742157 
L 142.883176 179.905742 
L 144.259142 182.136182 
L 145.635108 183.809011 
L 147.011074 187.433476 
L 148.38704 188.548696 
L 149.763006 189.106306 
L 151.138971 189.942721 
L 152.514937 194.4036 
L 153.890903 190.500331 
L 155.266869 189.385111 
L 156.642835 190.221526 
L 158.0188 188.548696 
L 159.394766 189.663916 
L 160.770732 188.827501 
L 163.522664 198.028065 
L 164.898629 187.991086 
L 166.274595 194.96121 
L 167.650561 192.451966 
L 169.026527 194.96121 
L 170.402493 197.19165 
L 171.778458 196.63404 
L 173.154424 201.65253 
L 174.53039 194.124795 
L 175.906356 197.19165 
L 177.282322 193.009576 
L 178.658287 195.797625 
L 180.034253 199.42209 
L 181.410219 201.373725 
L 182.786185 200.53731 
L 184.162151 202.21014 
L 185.538116 201.373725 
L 186.914082 200.816115 
L 188.290048 194.96121 
L 189.666014 201.373725 
L 191.04198 204.99819 
L 192.417946 200.53731 
L 193.793911 195.51882 
L 195.169877 197.470455 
L 197.921809 196.355235 
L 199.297775 200.53731 
L 200.67374 198.30687 
L 202.049706 198.585675 
L 203.425672 205.276994 
L 204.801638 198.86448 
L 206.177604 199.143285 
L 207.553569 197.19165 
L 208.929535 200.816115 
L 210.305501 198.86448 
L 211.681467 197.19165 
L 213.057433 192.173161 
L 214.433398 196.912845 
L 215.809364 195.240015 
L 217.18533 198.30687 
L 218.561296 197.19165 
L 219.937262 193.845991 
L 221.313227 194.682405 
L 222.689193 195.240015 
L 224.065159 194.124795 
L 225.441125 192.173161 
L 228.193056 193.845991 
L 229.569022 194.96121 
L 230.944988 184.924231 
L 232.320954 183.251401 
L 233.69692 182.693792 
L 235.072886 181.299767 
L 236.448851 190.500331 
L 237.824817 181.299767 
L 239.200783 182.693792 
L 240.576749 182.414987 
L 241.952715 181.578572 
L 243.32868 181.020962 
L 244.704646 177.675302 
L 246.080612 177.396497 
L 247.456578 184.366621 
L 248.832544 179.905742 
L 251.584475 169.589958 
L 252.960441 173.772032 
L 254.336407 175.444862 
L 255.712373 173.493227 
L 257.088338 171.820397 
L 258.464304 173.493227 
L 259.84027 169.311153 
L 261.216236 170.147568 
L 262.592202 158.995369 
L 263.968167 172.099202 
L 265.344133 153.140464 
L 266.720099 175.166057 
L 268.096065 162.341028 
L 269.472031 160.668198 
L 270.847996 158.158954 
L 272.223962 164.850273 
L 273.599928 159.274174 
L 274.975894 159.552979 
L 276.35186 163.735053 
L 277.727825 162.341028 
L 279.103791 156.486124 
L 280.479757 154.255684 
L 281.855723 150.910024 
L 283.231689 153.698074 
L 284.607655 153.140464 
L 285.98362 154.813294 
L 287.359586 160.389394 
L 288.735552 154.534489 
L 290.111518 155.649709 
L 291.487484 149.237195 
L 292.863449 160.110589 
L 294.239415 151.746439 
L 295.615381 159.831784 
L 296.991347 154.534489 
L 298.367313 156.764929 
L 299.743278 154.813294 
L 301.119244 155.649709 
L 302.49521 163.177443 
L 303.871176 166.244298 
L 305.247142 171.262788 
L 306.623107 177.954107 
L 307.999073 169.311153 
L 309.375039 162.062223 
L 310.751005 163.456248 
L 312.126971 162.341028 
L 313.502936 166.244298 
L 314.878902 167.638323 
L 316.254868 169.868763 
L 317.630834 173.772032 
L 319.0068 168.753543 
L 320.382765 167.917128 
L 323.134697 176.002472 
L 324.510663 183.530206 
L 327.262595 175.444862 
L 330.014526 179.905742 
L 331.390492 181.578572 
L 332.766458 182.136182 
L 334.142424 183.530206 
L 335.518389 184.087816 
L 336.894355 186.039451 
L 338.270321 184.366621 
L 339.646287 186.597061 
L 341.022253 179.905742 
L 342.398218 178.790522 
L 343.774184 181.857377 
L 345.15015 184.087816 
L 346.526116 176.002472 
L 347.902082 182.136182 
L 349.278047 177.954107 
L 350.654013 179.348132 
L 352.029979 178.790522 
L 353.405945 182.693792 
L 354.781911 182.414987 
L 356.157876 179.069327 
L 357.533842 171.262788 
L 358.909808 175.723667 
L 360.285774 164.850273 
L 361.66174 165.686688 
L 363.037705 174.608447 
L 364.413671 168.474738 
L 365.789637 163.735053 
L 367.165603 165.407883 
L 368.541569 165.129078 
L 369.917535 163.456248 
L 371.2935 165.965493 
L 372.669466 157.043734 
L 374.045432 166.801908 
L 375.421398 160.389394 
L 376.797364 161.783418 
L 378.173329 157.043734 
L 379.549295 163.735053 
L 380.925261 155.928514 
L 382.301227 162.619833 
L 383.677193 164.850273 
L 385.053158 155.928514 
L 386.429124 149.237195 
L 387.80509 151.467634 
L 389.181056 148.121975 
L 390.557022 150.631219 
L 391.932987 156.207319 
L 393.308953 160.389394 
L 394.684919 144.776315 
L 396.060885 138.92141 
L 397.436851 143.9399 
L 398.812816 136.969776 
L 400.188782 143.38229 
L 401.564748 140.873045 
L 402.940714 144.218705 
L 404.31668 144.49751 
L 405.692645 120.799087 
L 407.068611 124.981162 
L 408.444577 127.769211 
L 409.820543 129.999651 
L 411.196509 121.356697 
L 412.572475 121.356697 
L 413.94844 132.230091 
L 415.324406 120.799087 
L 416.700372 118.289842 
L 418.076338 99.052299 
L 419.452304 103.513179 
L 420.828269 112.992548 
L 422.204235 107.137643 
L 423.580201 93.755004 
L 424.956167 92.082175 
L 426.332133 97.100664 
L 427.708098 97.937079 
L 429.084064 101.561544 
L 430.46003 96.543054 
L 431.835996 96.821859 
L 433.211962 86.78488 
L 434.587927 87.063685 
L 435.963893 88.45771 
L 437.339859 85.948465 
L 438.715825 87.34249 
L 440.091791 86.22727 
L 441.467756 88.736515 
L 442.843722 86.78488 
L 444.219688 79.257146 
L 445.595654 80.372366 
L 446.97162 80.929976 
L 448.347585 82.045196 
L 449.723551 81.208781 
L 451.099517 94.591419 
L 452.475483 82.324001 
L 453.851449 88.45771 
L 455.227415 80.093561 
L 456.60338 83.99683 
L 457.979346 80.372366 
L 459.355312 101.561544 
L 460.731278 105.743618 
L 462.107244 106.580033 
L 463.483209 111.040913 
L 464.859175 108.252863 
L 466.235141 113.828963 
L 467.611107 114.944183 
L 468.987073 118.011037 
L 471.739004 132.787701 
L 473.11497 135.575751 
L 474.490936 124.702357 
L 475.866902 132.508896 
L 477.242867 135.575751 
L 478.618833 150.352414 
L 479.994799 152.861659 
L 481.370765 145.891535 
L 482.746731 144.776315 
L 484.122696 152.582854 
L 485.498662 155.370904 
L 486.874628 155.649709 
L 488.250594 165.129078 
L 489.62656 165.965493 
L 491.002525 165.407883 
L 492.378491 161.504613 
L 493.754457 162.619833 
L 495.130423 172.099202 
L 496.506389 172.378007 
L 497.882355 177.954107 
L 499.25832 177.396497 
L 500.634286 181.578572 
L 502.010252 181.020962 
L 503.386218 177.954107 
L 504.762184 173.214422 
L 506.138149 179.069327 
L 508.890081 186.597061 
L 510.266047 186.318256 
L 511.642013 184.087816 
L 513.017978 187.433476 
L 514.393944 191.894356 
L 515.76991 186.039451 
L 517.145876 191.057941 
L 518.521842 191.894356 
L 519.897807 194.96121 
L 521.273773 189.385111 
L 522.649739 187.433476 
L 524.025705 187.712281 
L 525.401671 192.173161 
L 526.777636 191.615551 
L 528.153602 187.991086 
L 529.529568 190.779136 
L 530.905534 191.615551 
L 532.2815 190.500331 
L 533.657465 191.336746 
L 535.033431 188.827501 
L 536.409397 193.845991 
L 537.785363 195.51882 
L 539.161329 189.942721 
L 540.537295 187.433476 
L 541.91326 192.730771 
L 543.289226 189.385111 
L 544.665192 191.057941 
L 546.041158 194.96121 
L 547.417124 191.894356 
L 548.793089 195.240015 
L 550.169055 192.730771 
L 551.545021 194.682405 
L 552.920987 192.730771 
L 554.296953 196.07643 
L 555.672918 192.451966 
L 557.048884 193.567186 
L 558.42485 198.86448 
L 559.800816 196.07643 
L 561.176782 189.942721 
L 562.552747 197.74926 
L 563.928713 196.63404 
L 565.304679 198.585675 
L 566.680645 194.124795 
L 568.056611 197.470455 
L 569.432576 191.615551 
L 570.808542 189.942721 
L 572.184508 196.07643 
L 573.560474 192.451966 
L 574.93644 193.288381 
L 576.312405 195.797625 
L 577.688371 194.124795 
L 579.064337 189.942721 
L 580.440303 189.385111 
L 581.816269 194.4036 
L 583.192235 188.548696 
L 584.5682 195.51882 
L 587.320132 188.827501 
L 588.696098 184.645426 
L 590.072064 190.779136 
L 591.448029 190.779136 
L 592.823995 193.009576 
L 594.199961 192.173161 
L 595.575927 191.894356 
L 596.951893 188.827501 
L 598.327858 187.154671 
L 599.703824 192.173161 
L 601.07979 197.74926 
L 602.455756 190.221526 
L 603.831722 199.9797 
L 605.207687 194.4036 
L 606.583653 190.221526 
L 607.959619 186.875866 
L 609.335585 187.712281 
L 610.711551 196.63404 
L 612.087516 189.942721 
L 613.463482 195.797625 
L 614.839448 193.845991 
L 616.215414 194.4036 
L 617.59138 192.451966 
L 618.967345 194.124795 
L 620.343311 188.548696 
L 621.719277 187.712281 
L 623.095243 192.173161 
L 625.847175 189.942721 
L 627.22314 192.173161 
L 628.599106 189.385111 
L 629.975072 187.991086 
L 631.351038 188.548696 
L 632.727004 182.136182 
L 634.102969 180.463352 
L 635.478935 169.868763 
L 636.854901 166.801908 
L 638.230867 166.244298 
L 639.606833 160.947003 
L 640.982798 163.177443 
L 642.358764 171.541593 
L 643.73473 160.947003 
L 645.110696 142.82468 
L 647.862627 133.624116 
L 649.238593 129.999651 
L 650.614559 125.259967 
L 651.990525 123.308332 
L 653.366491 125.817577 
L 654.742456 101.840349 
L 656.118422 103.791984 
L 657.494388 104.628399 
L 658.870354 106.580033 
L 660.24632 88.45771 
L 661.622285 108.810473 
L 662.998251 110.483303 
L 664.374217 88.178905 
L 665.750183 76.469096 
L 667.126149 85.948465 
L 668.502114 93.755004 
L 669.87808 107.416448 
L 671.254046 101.282739 
L 672.630012 122.193112 
L 674.005978 104.907203 
L 675.381944 105.743618 
L 676.757909 118.847452 
L 678.133875 117.453427 
L 679.509841 120.520282 
L 680.885807 121.356697 
L 682.261773 135.854556 
L 683.637738 107.137643 
L 685.013704 116.895817 
L 686.38967 129.163236 
L 687.765636 112.713743 
L 689.141602 131.951286 
L 690.517567 158.437759 
L 691.893533 158.995369 
L 693.269499 130.278456 
L 694.645465 135.018141 
L 696.021431 128.326821 
L 697.397396 149.794804 
L 698.773362 150.910024 
L 700.149328 158.995369 
L 701.525294 162.619833 
L 702.90126 154.534489 
L 704.277225 144.776315 
L 707.029157 169.311153 
L 708.405123 168.753543 
L 709.781089 163.456248 
L 711.157054 166.523103 
L 712.53302 159.552979 
L 713.908986 154.255684 
L 715.284952 167.080713 
L 716.660918 169.868763 
L 718.036884 167.359518 
L 719.412849 171.541593 
L 720.788815 179.069327 
L 722.164781 180.742157 
L 723.540747 181.299767 
L 724.916713 164.850273 
L 726.292678 170.983983 
L 727.668644 172.099202 
L 729.04461 180.184547 
L 730.420576 182.693792 
L 731.796542 162.619833 
L 733.172507 181.578572 
L 734.548473 177.396497 
L 735.924439 178.790522 
L 737.300405 176.002472 
L 738.676371 179.348132 
L 740.052336 184.645426 
L 741.428302 183.809011 
L 742.804268 176.838887 
L 744.180234 182.414987 
L 745.5562 183.530206 
L 746.932165 174.608447 
L 748.308131 182.693792 
L 749.684097 180.463352 
L 751.060063 177.396497 
L 752.436029 175.723667 
L 753.811994 175.166057 
L 755.18796 176.560082 
L 756.563926 179.905742 
L 757.939892 179.348132 
L 759.315858 183.809011 
L 760.691824 168.753543 
L 762.067789 170.983983 
L 763.443755 174.050837 
L 764.819721 168.474738 
L 766.195687 176.838887 
L 767.571653 174.050837 
L 768.947618 172.656812 
L 770.323584 168.753543 
L 771.69955 164.013858 
L 773.075516 168.474738 
L 775.827447 158.716564 
L 777.203413 159.274174 
L 778.579379 165.965493 
L 779.955345 160.389394 
L 781.331311 155.370904 
L 782.707276 145.05512 
L 784.083242 155.370904 
L 785.459208 151.746439 
L 786.835174 156.207319 
L 788.21114 142.545875 
L 789.587105 140.03663 
L 790.963071 124.981162 
L 792.339037 115.222988 
L 793.715003 130.278456 
L 795.090969 133.345311 
L 796.466934 139.47902 
L 797.8429 135.018141 
L 799.218866 112.713743 
L 800.594832 100.167519 
L 801.970798 109.368083 
L 803.346764 100.725129 
L 806.098695 87.063685 
L 807.474661 106.858838 
L 808.850627 63.644067 
L 810.226593 50.819038 
L 811.602558 73.123436 
L 812.978524 65.316897 
L 814.35449 56.395138 
L 815.730456 67.826142 
L 817.106422 84.833245 
L 818.482387 41.897279 
L 819.858353 32.139105 
L 821.234319 40.503254 
L 822.610285 52.213063 
L 823.986251 57.510358 
L 825.362216 60.019603 
L 826.738182 63.086457 
L 828.114148 24.053761 
L 829.490114 44.685329 
L 830.86608 17.083636 
L 832.242045 29.351055 
L 832.242045 29.351055 
" style="fill:none;stroke:#ff7f0e;stroke-linecap:square;stroke-width:1.5;"/>
   </g>
   <g id="line2d_17">
    <path clip-path="url(#pc297e7f7be)" d="M 561.176782 224.64 
L 561.176782 7.2 
" style="fill:none;stroke:#ff0000;stroke-dasharray:5.55,2.4;stroke-dashoffset:0;stroke-width:1.5;"/>
   </g>
   <g id="line2d_18">
    <path clip-path="url(#pc297e7f7be)" d="M 724.916713 224.64 
L 724.916713 7.2 
" style="fill:none;stroke:#008000;stroke-dasharray:5.55,2.4;stroke-dashoffset:0;stroke-width:1.5;"/>
   </g>
   <g id="line2d_19">
    <path clip-path="url(#pc297e7f7be)" d="M 779.955345 224.64 
L 779.955345 7.2 
" style="fill:none;stroke:#ffff00;stroke-dasharray:5.55,2.4;stroke-dashoffset:0;stroke-width:1.5;"/>
   </g>
   <g id="patch_3">
    <path d="M 33.2875 224.64 
L 33.2875 7.2 
" style="fill:none;stroke:#000000;stroke-linecap:square;stroke-linejoin:miter;stroke-width:0.8;"/>
   </g>
   <g id="patch_4">
    <path d="M 870.2875 224.64 
L 870.2875 7.2 
" style="fill:none;stroke:#000000;stroke-linecap:square;stroke-linejoin:miter;stroke-width:0.8;"/>
   </g>
   <g id="patch_5">
    <path d="M 33.2875 224.64 
L 870.2875 224.64 
" style="fill:none;stroke:#000000;stroke-linecap:square;stroke-linejoin:miter;stroke-width:0.8;"/>
   </g>
   <g id="patch_6">
    <path d="M 33.2875 7.2 
L 870.2875 7.2 
" style="fill:none;stroke:#000000;stroke-linecap:square;stroke-linejoin:miter;stroke-width:0.8;"/>
   </g>
   <g id="legend_1">
    <g id="patch_7">
     <path d="M 40.2875 59.234375 
L 412.404688 59.234375 
Q 414.404688 59.234375 414.404688 57.234375 
L 414.404688 14.2 
Q 414.404688 12.2 412.404688 12.2 
L 40.2875 12.2 
Q 38.2875 12.2 38.2875 14.2 
L 38.2875 57.234375 
Q 38.2875 59.234375 40.2875 59.234375 
z
" style="fill:#ffffff;opacity:0.8;stroke:#cccccc;stroke-linejoin:miter;"/>
    </g>
    <g id="line2d_20">
     <path d="M 42.2875 20.298437 
L 62.2875 20.298437 
" style="fill:none;stroke:#ff0000;stroke-dasharray:5.55,2.4;stroke-dashoffset:0;stroke-width:1.5;"/>
    </g>
    <g id="line2d_21"/>
    <g id="text_15">
     <!-- start of vaccinations -->
     <g transform="translate(70.2875 23.798437)scale(0.1 -0.1)">
      <defs>
       <path d="M 2834 3397 
L 2834 2853 
Q 2591 2978 2328 3040 
Q 2066 3103 1784 3103 
Q 1356 3103 1142 2972 
Q 928 2841 928 2578 
Q 928 2378 1081 2264 
Q 1234 2150 1697 2047 
L 1894 2003 
Q 2506 1872 2764 1633 
Q 3022 1394 3022 966 
Q 3022 478 2636 193 
Q 2250 -91 1575 -91 
Q 1294 -91 989 -36 
Q 684 19 347 128 
L 347 722 
Q 666 556 975 473 
Q 1284 391 1588 391 
Q 1994 391 2212 530 
Q 2431 669 2431 922 
Q 2431 1156 2273 1281 
Q 2116 1406 1581 1522 
L 1381 1569 
Q 847 1681 609 1914 
Q 372 2147 372 2553 
Q 372 3047 722 3315 
Q 1072 3584 1716 3584 
Q 2034 3584 2315 3537 
Q 2597 3491 2834 3397 
z
" id="DejaVuSans-73" transform="scale(0.015625)"/>
       <path d="M 1172 4494 
L 1172 3500 
L 2356 3500 
L 2356 3053 
L 1172 3053 
L 1172 1153 
Q 1172 725 1289 603 
Q 1406 481 1766 481 
L 2356 481 
L 2356 0 
L 1766 0 
Q 1100 0 847 248 
Q 594 497 594 1153 
L 594 3053 
L 172 3053 
L 172 3500 
L 594 3500 
L 594 4494 
L 1172 4494 
z
" id="DejaVuSans-74" transform="scale(0.015625)"/>
       <path d="M 2194 1759 
Q 1497 1759 1228 1600 
Q 959 1441 959 1056 
Q 959 750 1161 570 
Q 1363 391 1709 391 
Q 2188 391 2477 730 
Q 2766 1069 2766 1631 
L 2766 1759 
L 2194 1759 
z
M 3341 1997 
L 3341 0 
L 2766 0 
L 2766 531 
Q 2569 213 2275 61 
Q 1981 -91 1556 -91 
Q 1019 -91 701 211 
Q 384 513 384 1019 
Q 384 1609 779 1909 
Q 1175 2209 1959 2209 
L 2766 2209 
L 2766 2266 
Q 2766 2663 2505 2880 
Q 2244 3097 1772 3097 
Q 1472 3097 1187 3025 
Q 903 2953 641 2809 
L 641 3341 
Q 956 3463 1253 3523 
Q 1550 3584 1831 3584 
Q 2591 3584 2966 3190 
Q 3341 2797 3341 1997 
z
" id="DejaVuSans-61" transform="scale(0.015625)"/>
       <path d="M 2631 2963 
Q 2534 3019 2420 3045 
Q 2306 3072 2169 3072 
Q 1681 3072 1420 2755 
Q 1159 2438 1159 1844 
L 1159 0 
L 581 0 
L 581 3500 
L 1159 3500 
L 1159 2956 
Q 1341 3275 1631 3429 
Q 1922 3584 2338 3584 
Q 2397 3584 2469 3576 
Q 2541 3569 2628 3553 
L 2631 2963 
z
" id="DejaVuSans-72" transform="scale(0.015625)"/>
       <path id="DejaVuSans-20" transform="scale(0.015625)"/>
       <path d="M 1959 3097 
Q 1497 3097 1228 2736 
Q 959 2375 959 1747 
Q 959 1119 1226 758 
Q 1494 397 1959 397 
Q 2419 397 2687 759 
Q 2956 1122 2956 1747 
Q 2956 2369 2687 2733 
Q 2419 3097 1959 3097 
z
M 1959 3584 
Q 2709 3584 3137 3096 
Q 3566 2609 3566 1747 
Q 3566 888 3137 398 
Q 2709 -91 1959 -91 
Q 1206 -91 779 398 
Q 353 888 353 1747 
Q 353 2609 779 3096 
Q 1206 3584 1959 3584 
z
" id="DejaVuSans-6f" transform="scale(0.015625)"/>
       <path d="M 2375 4863 
L 2375 4384 
L 1825 4384 
Q 1516 4384 1395 4259 
Q 1275 4134 1275 3809 
L 1275 3500 
L 2222 3500 
L 2222 3053 
L 1275 3053 
L 1275 0 
L 697 0 
L 697 3053 
L 147 3053 
L 147 3500 
L 697 3500 
L 697 3744 
Q 697 4328 969 4595 
Q 1241 4863 1831 4863 
L 2375 4863 
z
" id="DejaVuSans-66" transform="scale(0.015625)"/>
       <path d="M 191 3500 
L 800 3500 
L 1894 563 
L 2988 3500 
L 3597 3500 
L 2284 0 
L 1503 0 
L 191 3500 
z
" id="DejaVuSans-76" transform="scale(0.015625)"/>
       <path d="M 3122 3366 
L 3122 2828 
Q 2878 2963 2633 3030 
Q 2388 3097 2138 3097 
Q 1578 3097 1268 2742 
Q 959 2388 959 1747 
Q 959 1106 1268 751 
Q 1578 397 2138 397 
Q 2388 397 2633 464 
Q 2878 531 3122 666 
L 3122 134 
Q 2881 22 2623 -34 
Q 2366 -91 2075 -91 
Q 1284 -91 818 406 
Q 353 903 353 1747 
Q 353 2603 823 3093 
Q 1294 3584 2113 3584 
Q 2378 3584 2631 3529 
Q 2884 3475 3122 3366 
z
" id="DejaVuSans-63" transform="scale(0.015625)"/>
       <path d="M 603 3500 
L 1178 3500 
L 1178 0 
L 603 0 
L 603 3500 
z
M 603 4863 
L 1178 4863 
L 1178 4134 
L 603 4134 
L 603 4863 
z
" id="DejaVuSans-69" transform="scale(0.015625)"/>
       <path d="M 3513 2113 
L 3513 0 
L 2938 0 
L 2938 2094 
Q 2938 2591 2744 2837 
Q 2550 3084 2163 3084 
Q 1697 3084 1428 2787 
Q 1159 2491 1159 1978 
L 1159 0 
L 581 0 
L 581 3500 
L 1159 3500 
L 1159 2956 
Q 1366 3272 1645 3428 
Q 1925 3584 2291 3584 
Q 2894 3584 3203 3211 
Q 3513 2838 3513 2113 
z
" id="DejaVuSans-6e" transform="scale(0.015625)"/>
      </defs>
      <use xlink:href="#DejaVuSans-73"/>
      <use x="52.099609" xlink:href="#DejaVuSans-74"/>
      <use x="91.308594" xlink:href="#DejaVuSans-61"/>
      <use x="152.587891" xlink:href="#DejaVuSans-72"/>
      <use x="193.701172" xlink:href="#DejaVuSans-74"/>
      <use x="232.910156" xlink:href="#DejaVuSans-20"/>
      <use x="264.697266" xlink:href="#DejaVuSans-6f"/>
      <use x="325.878906" xlink:href="#DejaVuSans-66"/>
      <use x="361.083984" xlink:href="#DejaVuSans-20"/>
      <use x="392.871094" xlink:href="#DejaVuSans-76"/>
      <use x="452.050781" xlink:href="#DejaVuSans-61"/>
      <use x="513.330078" xlink:href="#DejaVuSans-63"/>
      <use x="568.310547" xlink:href="#DejaVuSans-63"/>
      <use x="623.291016" xlink:href="#DejaVuSans-69"/>
      <use x="651.074219" xlink:href="#DejaVuSans-6e"/>
      <use x="714.453125" xlink:href="#DejaVuSans-61"/>
      <use x="775.732422" xlink:href="#DejaVuSans-74"/>
      <use x="814.941406" xlink:href="#DejaVuSans-69"/>
      <use x="842.724609" xlink:href="#DejaVuSans-6f"/>
      <use x="903.90625" xlink:href="#DejaVuSans-6e"/>
      <use x="967.285156" xlink:href="#DejaVuSans-73"/>
     </g>
    </g>
    <g id="line2d_22">
     <path d="M 42.2875 34.976562 
L 62.2875 34.976562 
" style="fill:none;stroke:#008000;stroke-dasharray:5.55,2.4;stroke-dashoffset:0;stroke-width:1.5;"/>
    </g>
    <g id="line2d_23"/>
    <g id="text_16">
     <!-- 4 million doses -->
     <g transform="translate(70.2875 38.476562)scale(0.1 -0.1)">
      <defs>
       <path d="M 3328 2828 
Q 3544 3216 3844 3400 
Q 4144 3584 4550 3584 
Q 5097 3584 5394 3201 
Q 5691 2819 5691 2113 
L 5691 0 
L 5113 0 
L 5113 2094 
Q 5113 2597 4934 2840 
Q 4756 3084 4391 3084 
Q 3944 3084 3684 2787 
Q 3425 2491 3425 1978 
L 3425 0 
L 2847 0 
L 2847 2094 
Q 2847 2600 2669 2842 
Q 2491 3084 2119 3084 
Q 1678 3084 1418 2786 
Q 1159 2488 1159 1978 
L 1159 0 
L 581 0 
L 581 3500 
L 1159 3500 
L 1159 2956 
Q 1356 3278 1631 3431 
Q 1906 3584 2284 3584 
Q 2666 3584 2933 3390 
Q 3200 3197 3328 2828 
z
" id="DejaVuSans-6d" transform="scale(0.015625)"/>
       <path d="M 603 4863 
L 1178 4863 
L 1178 0 
L 603 0 
L 603 4863 
z
" id="DejaVuSans-6c" transform="scale(0.015625)"/>
       <path d="M 2906 2969 
L 2906 4863 
L 3481 4863 
L 3481 0 
L 2906 0 
L 2906 525 
Q 2725 213 2448 61 
Q 2172 -91 1784 -91 
Q 1150 -91 751 415 
Q 353 922 353 1747 
Q 353 2572 751 3078 
Q 1150 3584 1784 3584 
Q 2172 3584 2448 3432 
Q 2725 3281 2906 2969 
z
M 947 1747 
Q 947 1113 1208 752 
Q 1469 391 1925 391 
Q 2381 391 2643 752 
Q 2906 1113 2906 1747 
Q 2906 2381 2643 2742 
Q 2381 3103 1925 3103 
Q 1469 3103 1208 2742 
Q 947 2381 947 1747 
z
" id="DejaVuSans-64" transform="scale(0.015625)"/>
       <path d="M 3597 1894 
L 3597 1613 
L 953 1613 
Q 991 1019 1311 708 
Q 1631 397 2203 397 
Q 2534 397 2845 478 
Q 3156 559 3463 722 
L 3463 178 
Q 3153 47 2828 -22 
Q 2503 -91 2169 -91 
Q 1331 -91 842 396 
Q 353 884 353 1716 
Q 353 2575 817 3079 
Q 1281 3584 2069 3584 
Q 2775 3584 3186 3129 
Q 3597 2675 3597 1894 
z
M 3022 2063 
Q 3016 2534 2758 2815 
Q 2500 3097 2075 3097 
Q 1594 3097 1305 2825 
Q 1016 2553 972 2059 
L 3022 2063 
z
" id="DejaVuSans-65" transform="scale(0.015625)"/>
      </defs>
      <use xlink:href="#DejaVuSans-34"/>
      <use x="63.623047" xlink:href="#DejaVuSans-20"/>
      <use x="95.410156" xlink:href="#DejaVuSans-6d"/>
      <use x="192.822266" xlink:href="#DejaVuSans-69"/>
      <use x="220.605469" xlink:href="#DejaVuSans-6c"/>
      <use x="248.388672" xlink:href="#DejaVuSans-6c"/>
      <use x="276.171875" xlink:href="#DejaVuSans-69"/>
      <use x="303.955078" xlink:href="#DejaVuSans-6f"/>
      <use x="365.136719" xlink:href="#DejaVuSans-6e"/>
      <use x="428.515625" xlink:href="#DejaVuSans-20"/>
      <use x="460.302734" xlink:href="#DejaVuSans-64"/>
      <use x="523.779297" xlink:href="#DejaVuSans-6f"/>
      <use x="584.960938" xlink:href="#DejaVuSans-73"/>
      <use x="637.060547" xlink:href="#DejaVuSans-65"/>
      <use x="698.583984" xlink:href="#DejaVuSans-73"/>
     </g>
    </g>
    <g id="line2d_24">
     <path d="M 42.2875 49.654687 
L 62.2875 49.654687 
" style="fill:none;stroke:#ffff00;stroke-dasharray:5.55,2.4;stroke-dashoffset:0;stroke-width:1.5;"/>
    </g>
    <g id="line2d_25"/>
    <g id="text_17">
     <!-- start of second phase of vaccinations, starting from 4.4 million total -->
     <g transform="translate(70.2875 53.154687)scale(0.1 -0.1)">
      <defs>
       <path d="M 1159 525 
L 1159 -1331 
L 581 -1331 
L 581 3500 
L 1159 3500 
L 1159 2969 
Q 1341 3281 1617 3432 
Q 1894 3584 2278 3584 
Q 2916 3584 3314 3078 
Q 3713 2572 3713 1747 
Q 3713 922 3314 415 
Q 2916 -91 2278 -91 
Q 1894 -91 1617 61 
Q 1341 213 1159 525 
z
M 3116 1747 
Q 3116 2381 2855 2742 
Q 2594 3103 2138 3103 
Q 1681 3103 1420 2742 
Q 1159 2381 1159 1747 
Q 1159 1113 1420 752 
Q 1681 391 2138 391 
Q 2594 391 2855 752 
Q 3116 1113 3116 1747 
z
" id="DejaVuSans-70" transform="scale(0.015625)"/>
       <path d="M 3513 2113 
L 3513 0 
L 2938 0 
L 2938 2094 
Q 2938 2591 2744 2837 
Q 2550 3084 2163 3084 
Q 1697 3084 1428 2787 
Q 1159 2491 1159 1978 
L 1159 0 
L 581 0 
L 581 4863 
L 1159 4863 
L 1159 2956 
Q 1366 3272 1645 3428 
Q 1925 3584 2291 3584 
Q 2894 3584 3203 3211 
Q 3513 2838 3513 2113 
z
" id="DejaVuSans-68" transform="scale(0.015625)"/>
       <path d="M 750 794 
L 1409 794 
L 1409 256 
L 897 -744 
L 494 -744 
L 750 256 
L 750 794 
z
" id="DejaVuSans-2c" transform="scale(0.015625)"/>
       <path d="M 2906 1791 
Q 2906 2416 2648 2759 
Q 2391 3103 1925 3103 
Q 1463 3103 1205 2759 
Q 947 2416 947 1791 
Q 947 1169 1205 825 
Q 1463 481 1925 481 
Q 2391 481 2648 825 
Q 2906 1169 2906 1791 
z
M 3481 434 
Q 3481 -459 3084 -895 
Q 2688 -1331 1869 -1331 
Q 1566 -1331 1297 -1286 
Q 1028 -1241 775 -1147 
L 775 -588 
Q 1028 -725 1275 -790 
Q 1522 -856 1778 -856 
Q 2344 -856 2625 -561 
Q 2906 -266 2906 331 
L 2906 616 
Q 2728 306 2450 153 
Q 2172 0 1784 0 
Q 1141 0 747 490 
Q 353 981 353 1791 
Q 353 2603 747 3093 
Q 1141 3584 1784 3584 
Q 2172 3584 2450 3431 
Q 2728 3278 2906 2969 
L 2906 3500 
L 3481 3500 
L 3481 434 
z
" id="DejaVuSans-67" transform="scale(0.015625)"/>
       <path d="M 684 794 
L 1344 794 
L 1344 0 
L 684 0 
L 684 794 
z
" id="DejaVuSans-2e" transform="scale(0.015625)"/>
      </defs>
      <use xlink:href="#DejaVuSans-73"/>
      <use x="52.099609" xlink:href="#DejaVuSans-74"/>
      <use x="91.308594" xlink:href="#DejaVuSans-61"/>
      <use x="152.587891" xlink:href="#DejaVuSans-72"/>
      <use x="193.701172" xlink:href="#DejaVuSans-74"/>
      <use x="232.910156" xlink:href="#DejaVuSans-20"/>
      <use x="264.697266" xlink:href="#DejaVuSans-6f"/>
      <use x="325.878906" xlink:href="#DejaVuSans-66"/>
      <use x="361.083984" xlink:href="#DejaVuSans-20"/>
      <use x="392.871094" xlink:href="#DejaVuSans-73"/>
      <use x="444.970703" xlink:href="#DejaVuSans-65"/>
      <use x="506.494141" xlink:href="#DejaVuSans-63"/>
      <use x="561.474609" xlink:href="#DejaVuSans-6f"/>
      <use x="622.65625" xlink:href="#DejaVuSans-6e"/>
      <use x="686.035156" xlink:href="#DejaVuSans-64"/>
      <use x="749.511719" xlink:href="#DejaVuSans-20"/>
      <use x="781.298828" xlink:href="#DejaVuSans-70"/>
      <use x="844.775391" xlink:href="#DejaVuSans-68"/>
      <use x="908.154297" xlink:href="#DejaVuSans-61"/>
      <use x="969.433594" xlink:href="#DejaVuSans-73"/>
      <use x="1021.533203" xlink:href="#DejaVuSans-65"/>
      <use x="1083.056641" xlink:href="#DejaVuSans-20"/>
      <use x="1114.84375" xlink:href="#DejaVuSans-6f"/>
      <use x="1176.025391" xlink:href="#DejaVuSans-66"/>
      <use x="1211.230469" xlink:href="#DejaVuSans-20"/>
      <use x="1243.017578" xlink:href="#DejaVuSans-76"/>
      <use x="1302.197266" xlink:href="#DejaVuSans-61"/>
      <use x="1363.476562" xlink:href="#DejaVuSans-63"/>
      <use x="1418.457031" xlink:href="#DejaVuSans-63"/>
      <use x="1473.4375" xlink:href="#DejaVuSans-69"/>
      <use x="1501.220703" xlink:href="#DejaVuSans-6e"/>
      <use x="1564.599609" xlink:href="#DejaVuSans-61"/>
      <use x="1625.878906" xlink:href="#DejaVuSans-74"/>
      <use x="1665.087891" xlink:href="#DejaVuSans-69"/>
      <use x="1692.871094" xlink:href="#DejaVuSans-6f"/>
      <use x="1754.052734" xlink:href="#DejaVuSans-6e"/>
      <use x="1817.431641" xlink:href="#DejaVuSans-73"/>
      <use x="1869.53125" xlink:href="#DejaVuSans-2c"/>
      <use x="1901.318359" xlink:href="#DejaVuSans-20"/>
      <use x="1933.105469" xlink:href="#DejaVuSans-73"/>
      <use x="1985.205078" xlink:href="#DejaVuSans-74"/>
      <use x="2024.414062" xlink:href="#DejaVuSans-61"/>
      <use x="2085.693359" xlink:href="#DejaVuSans-72"/>
      <use x="2126.806641" xlink:href="#DejaVuSans-74"/>
      <use x="2166.015625" xlink:href="#DejaVuSans-69"/>
      <use x="2193.798828" xlink:href="#DejaVuSans-6e"/>
      <use x="2257.177734" xlink:href="#DejaVuSans-67"/>
      <use x="2320.654297" xlink:href="#DejaVuSans-20"/>
      <use x="2352.441406" xlink:href="#DejaVuSans-66"/>
      <use x="2387.646484" xlink:href="#DejaVuSans-72"/>
      <use x="2426.509766" xlink:href="#DejaVuSans-6f"/>
      <use x="2487.691406" xlink:href="#DejaVuSans-6d"/>
      <use x="2585.103516" xlink:href="#DejaVuSans-20"/>
      <use x="2616.890625" xlink:href="#DejaVuSans-34"/>
      <use x="2680.513672" xlink:href="#DejaVuSans-2e"/>
      <use x="2712.300781" xlink:href="#DejaVuSans-34"/>
      <use x="2775.923828" xlink:href="#DejaVuSans-20"/>
      <use x="2807.710938" xlink:href="#DejaVuSans-6d"/>
      <use x="2905.123047" xlink:href="#DejaVuSans-69"/>
      <use x="2932.90625" xlink:href="#DejaVuSans-6c"/>
      <use x="2960.689453" xlink:href="#DejaVuSans-6c"/>
      <use x="2988.472656" xlink:href="#DejaVuSans-69"/>
      <use x="3016.255859" xlink:href="#DejaVuSans-6f"/>
      <use x="3077.4375" xlink:href="#DejaVuSans-6e"/>
      <use x="3140.816406" xlink:href="#DejaVuSans-20"/>
      <use x="3172.603516" xlink:href="#DejaVuSans-74"/>
      <use x="3211.8125" xlink:href="#DejaVuSans-6f"/>
      <use x="3272.994141" xlink:href="#DejaVuSans-74"/>
      <use x="3312.203125" xlink:href="#DejaVuSans-61"/>
      <use x="3373.482422" xlink:href="#DejaVuSans-6c"/>
     </g>
    </g>
   </g>
  </g>
 </g>
 <defs>
  <clipPath id="pc297e7f7be">
   <rect height="217.44" width="837" x="33.2875" y="7.2"/>
  </clipPath>
 </defs>
</svg>
